<?xml version="1.0" standalone="no"?>
<!DOCTYPE svg PUBLIC "-//W3C//DTD SVG 1.1//EN" "http://www.w3.org/Graphics/SVG/1.1/DTD/svg11.dtd" >
<svg xmlns="http://www.w3.org/2000/svg">
<metadata>
Created by FontForge 20120731 at Wed Jul 27 16:18:13 2016
 By admin
</metadata>
<defs>
<font id="iconfont" horiz-adv-x="1024" >
  <font-face 
    font-family="iconfont"
    font-weight="500"
    font-stretch="normal"
    units-per-em="1024"
    panose-1="2 0 6 3 0 0 0 0 0 0"
    ascent="896"
    descent="-128"
    x-height="792"
    bbox="-0.0250015 -150 1497.58 896"
    underline-thickness="50"
    underline-position="-100"
    unicode-range="U+0078-E675"
  />
<missing-glyph horiz-adv-x="374" 
d="M34 0v682h272v-682h-272zM68 34h204v614h-204v-614z" />
    <glyph glyph-name=".notdef" horiz-adv-x="374" 
d="M34 0v682h272v-682h-272zM68 34h204v614h-204v-614z" />
    <glyph glyph-name=".null" horiz-adv-x="0" 
 />
    <glyph glyph-name="nonmarkingreturn" horiz-adv-x="341" 
 />
    <glyph glyph-name="x" unicode="x" horiz-adv-x="1001" 
d="M281 543q-27 -1 -53 -1h-83q-18 0 -36.5 -6t-32.5 -18.5t-23 -32t-9 -45.5v-76h912v41q0 16 -0.5 30t-0.5 18q0 13 -5 29t-17 29.5t-31.5 22.5t-49.5 9h-133v-97h-438v97zM955 310v-52q0 -23 0.5 -52t0.5 -58t-10.5 -47.5t-26 -30t-33 -16t-31.5 -4.5q-14 -1 -29.5 -0.5
t-29.5 0.5h-32l-45 128h-439l-44 -128h-29h-34q-20 0 -45 1q-25 0 -41 9.5t-25.5 23t-13.5 29.5t-4 30v167h911zM163 247q-12 0 -21 -8.5t-9 -21.5t9 -21.5t21 -8.5q13 0 22 8.5t9 21.5t-9 21.5t-22 8.5zM316 123q-8 -26 -14 -48q-5 -19 -10.5 -37t-7.5 -25t-3 -15t1 -14.5
t9.5 -10.5t21.5 -4h37h67h81h80h64h36q23 0 34 12t2 38q-5 13 -9.5 30.5t-9.5 34.5q-5 19 -11 39h-368zM336 498v228q0 11 2.5 23t10 21.5t20.5 15.5t34 6h188q31 0 51.5 -14.5t20.5 -52.5v-227h-327z" />
    <glyph glyph-name="uniE600" unicode="&#xe600;" 
d="M854 675h-212v31q0 25 -18 43.5t-43 18.5h-160q-26 0 -44 -18.5t-18 -43.5v-31l-240 1q-8 0 -14 -6t-6 -15t6 -15t14 -6l735 -1q9 0 15 6t6 15t-6 15t-15 6zM400 706q0 8 6 14t15 6h160q8 0 14 -6t6 -14v-31h-201v31zM745.5 591q-8.5 0 -14.5 -6t-6 -14v-529h-449v534
q0 9 -6 15t-14.5 6t-14.5 -6t-6 -15v-555v-21l21 1l489 -2l21 1v26v545q0 8 -6 14t-14.5 6zM648 135v371q0 9 -6 15t-14.5 6t-14.5 -6t-6 -15v-371q0 -9 6 -15t14.5 -6t14.5 6t6 15zM402 135v371q0 9 -6 15t-14.5 6t-14.5 -6t-6 -15v-371q0 -9 6 -15t14.5 -6t14.5 6t6 15z
M525 135v371q0 9 -6 15t-14.5 6t-14.5 -6t-6 -15v-371q0 -9 6 -15t14.5 -6t14.5 6t6 15z" />
    <glyph glyph-name="uniE601" unicode="&#xe601;" 
d="M256 160h-32v576h448v-32h32v32q0 3 -1 8.5t-9 14.5t-22 9h-448q-14 0 -22 -8t-9 -16l-1 -8v-576q0 -3 1 -8.5t9 -14.5t22 -9h32v32v0zM320 0q-14 0 -22 8t-9 16l-1 8v608q0 3 1 8.5t9 14.5t22 9h480q14 0 22 -8t9 -16l1 -8v-416l-224 -224h-288v0zM320 32h288l192 192
v416h-480v-608v0zM605 5q-2 0 -4 1q-3 1 -14 12.5t-11 13.5v192q0 4 1 9t9 14t22 9h224q-23 -23 -26 -25l-195 -223q-2 -3 -6 -3v0zM608 224v-192l192 192h-192v0zM736 448h-256v32h256v-32v0zM736 352h-256v32h256v-32v0zM608 576h-96v-32h96v32v0zM384 480h64v-32h-64v32
v0zM384 384h64v-32h-64v32v0zM384 384z" />
    <glyph glyph-name="uniE602" unicode="&#xe602;" 
d="M5 152q0 49 13.5 85.5t47.5 68.5v-309q-36 32 -48.5 68t-12.5 87zM951 306q30 -23 49 -64t19 -90q0 -51 -15 -87t-53 -68v309zM831 352q19 0 38.5 -15.5t19.5 -42.5v-261q0 -12 -6 -23t-14 -19.5t-18 -12.5q-11 -5 -20 -5h-71q-26 0 -43.5 16.5t-17.5 43.5v261
q0 28 19 43q20 15 42 15h71zM254 352q29 0 47 -14.5t18 -44.5v-254q0 -31 -15.5 -48t-40.5 -17h-74q-30 0 -45 18t-15 45v256q0 30 18.5 44.5t43.5 14.5h63zM510 795q80 0 150.5 -27.5t123.5 -77.5t83 -119q31 -70 31 -154h-67h-45q-20 -1 -20 0q0 63 -21.5 111t-56.5 80
t-81 49q-45 16 -97 16q-50 0 -95.5 -21.5t-80.5 -57t-56 -81.5t-21 -96h-134q0 84 31 154q30 69 82.5 119t123 77.5t150.5 27.5zM510 795z" />
    <glyph glyph-name="uniE603" unicode="&#xe603;" 
d="M320 430q-24 -22 -23.5 -52.5t24.5 -51.5l365 -319q8 -7 18 -6.5t17 8.5t6.5 18.5t-8.5 16.5l-365 320q-7 6 -7 14t7 15l365 331q8 7 8.5 17.5t-6.5 18t-17.5 8t-18.5 -6.5zM320 430z" />
    <glyph glyph-name="uniE604" unicode="&#xe604;" 
d="M704 430l-365 331q-8 7 -18.5 6.5t-17.5 -8t-6.5 -18t8.5 -17.5l365 -331q7 -7 7 -15t-7 -14l-365 -320q-8 -6 -8.5 -16.5t6.5 -18.5t17 -8.5t18 6.5l365 319q24 21 24.5 51.5t-23.5 52.5zM704 430z" />
    <glyph glyph-name="uniE605" unicode="&#xe605;" 
d="M873 407h-338v338q0 9 -7 16t-16 7t-16 -7t-7 -16v-338h-338q-9 0 -16 -7t-7 -16t7 -16t16 -7h338v-338q0 -9 7 -16t16 -7t16 7t7 16v338h338q9 0 16 7t7 16t-7 16t-16 7z" />
    <glyph glyph-name="uniE606" unicode="&#xe606;" 
d="M513 830q-91 0 -174 -35t-143 -95t-95 -143t-35 -174t35 -173.5t95 -142.5t143 -95.5t174 -35.5t173.5 35.5t142.5 95.5t95.5 142.5t35.5 173.5t-35.5 174t-95.5 143t-142.5 95t-173.5 35zM789 495l-300 -301l-8 -7q-5 -6 -8 -9l-16 -15q-6 -7 -15.5 -7t-15.5 7l-190 189
q-7 7 -7 16t7 16l16 16q6 6 15.5 6t15.5 -6l159 -158l300 300q6 7 15.5 7t16.5 -7l15 -16q7 -6 7 -15.5t-7 -15.5z" />
    <glyph glyph-name="uniE607" unicode="&#xe607;" 
d="M310.5 768q-75.5 0 -129 -53.5t-53.5 -129t53.5 -129t129.5 -53.5h163h19v19v163q0 76 -53.5 129.5t-129 53.5zM454 442h-143q-60 0 -102 42t-42 101.5t42 101.5t101.5 42t101.5 -42t42 -102v-143zM311 365q-76 0 -129.5 -53.5t-53.5 -129t53.5 -129t129 -53.5t129 53.5
t53.5 129.5v163v19h-19h-163zM310.5 39q-59.5 0 -101.5 42t-42 101.5t42 101.5t102 42h143v-143q0 -60 -42 -102t-101.5 -42zM713 403q76 0 129.5 53.5t53.5 129t-53.5 129t-129 53.5t-129 -53.5t-53.5 -129.5v-163v-19h19h163zM713.5 729q59.5 0 101.5 -42t42 -101.5
t-42 -101.5t-102 -42h-143v143q0 60 42 102t101.5 42zM713 365h-163h-19v-19v-163q0 -76 53.5 -129.5t128.5 -53.5q43 0 81 19q7 4 9.5 11.5t-1 14.5t-11 9.5t-14.5 -1.5q-30 -14 -64 -14q-59 0 -101 42t-42 102v143h143q60 0 102 -42t42 -101q0 -21 -6 -41q-2 -8 2 -15
t11.5 -9t14.5 1.5t9 11.5q8 25 8 52q0 75 -53.5 128.5t-129.5 53.5z" />
    <glyph glyph-name="uniE608" unicode="&#xe608;" 
d="M820 768h-701h-21v-21v-518q0 -44 31 -75.5t75 -31.5h111q9 0 15 6t6 15t-6 15.5t-15 6.5h-111q-26 0 -44.5 19t-18.5 45v496h679q26 0 44.5 -19t18.5 -45v-496h-360h-7l-5 -4l-182 -122q-7 -5 -9 -13.5t3 -16t13.5 -9.5t16.5 3l176 119h376h21v21v518q0 44 -31 75.5
t-75 31.5zM310.5 531q-35.5 0 -60 -25t-24.5 -61t24.5 -61t60 -25t60 25t24.5 61t-24.5 61t-60 25zM310.5 402q-17.5 0 -30 12.5t-12.5 30.5t12.5 30.5t30 12.5t30 -12.5t12.5 -30.5t-12.5 -30.5t-30 -12.5zM608 445q0 36 -25 61t-60.5 25t-60 -25t-24.5 -61t24.5 -61
t60 -25t60.5 25t25 61zM480 445q0 18 12.5 30.5t30 12.5t30 -12.5t12.5 -30.5t-12.5 -30.5t-30 -12.5t-30 12.5t-12.5 30.5zM820 445q0 36 -25 61t-60 25t-60 -25t-25 -61t25 -61t60 -25t60 25t25 61zM692 445q0 18 12.5 30.5t30 12.5t30 -12.5t12.5 -30.5t-12.5 -30.5
t-30 -12.5t-30 12.5t-12.5 30.5z" />
    <glyph glyph-name="uniE609" unicode="&#xe609;" 
d="M858.5 447q-8.5 0 -14.5 -6t-6 -15v-383h-644q-26 0 -44 18.5t-18 44.5v479h451q9 0 15 6t6 15t-6 15t-15 6h-472h-21v-21v-500q0 -44 30.5 -75t73.5 -31h664h21v21v405q0 9 -6 15t-14.5 6zM917 674l-107 81l-17 13l-12 -17l-333 -427l-5 -6v-7l-3 -124l-1 -31l29 10
l120 43l6 2l4 5l323 428l13 17zM801 709l74 -56l-36 -48l-76 55zM568 247l-85 -31l2 87l252 324l77 -56z" />
    <glyph glyph-name="uniE60A" unicode="&#xe60a;" 
d="M527 390l-294 210q-8 5 -17 3.5t-14.5 -9t-4 -16.5t9.5 -15l306 -218q11 -8 23 -1l406 223q9 5 11 14q8 7 8 17v57q0 47 -33 80t-79 33h-764h-22v-23v-632q0 -47 33 -80t79 -33h764h22v23v418q0 9 -6.5 16t-16 7t-16 -7t-6.5 -16v-396h-741q-28 0 -47.5 20t-19.5 48v610
h741q28 0 47.5 -20t19.5 -48v-51z" />
    <glyph glyph-name="uniE60B" unicode="&#xe60b;" 
d="M1024 384q0 139 -68.5 257t-186.5 186.5t-257 68.5t-257 -68.5t-186.5 -186.5t-68.5 -257t68.5 -257t186.5 -186.5t257 -68.5q179 0 319 111q8 7 9 17t-5.5 18.5t-16.5 9.5t-18 -6q-126 -100 -288 -100q-94 0 -179.5 36.5t-147.5 98.5t-98.5 147.5t-36.5 179.5
t36.5 179.5t98.5 147.5t147.5 98.5t179.5 36.5t179.5 -36.5t147.5 -98.5t98.5 -147.5t36.5 -179.5q0 -132 -70 -244q-5 -9 -2.5 -19t11 -15.5t18.5 -3t16 11.5q77 123 77 270zM337 396q26 0 44.5 18.5t18.5 44.5t-18.5 44t-44.5 18t-44 -18t-18 -44t18 -44.5t44 -18.5z
M712 396q26 0 44 18.5t18 44.5t-18 44t-44 18t-44.5 -18t-18.5 -44t18.5 -44.5t44.5 -18.5zM353 127q69 -55 171.5 -55t171.5 55q36 29 51 59q4 9 1 18.5t-12.5 14.5t-19 1.5t-14.5 -12.5q-2 -4 -8 -12q-12 -16 -29 -30q-56 -44 -140.5 -44t-140.5 44q-17 14 -29 30
q-6 8 -8 12q-5 9 -14.5 12.5t-19 -1.5t-12.5 -14.5t1 -18.5q15 -30 51 -59z" />
    <glyph glyph-name="uniE60C" unicode="&#xe60c;" 
d="M774 773q-71 0 -126 -44t-71 -112q-21 -20 -119.5 -112t-162.5 -154.5t-64 -71.5q0 -5 2 -11t2 -9.5t-4 -5.5q-30 -19 -51 -54t-27 -55.5t-6 -25.5q0 -15 1 -26t5.5 -26t12 -24.5t22.5 -16.5t37 -7q26 0 52.5 13.5t48.5 33.5t43.5 39.5t45 33.5t46.5 14q30 0 52 -22
t22 -52q0 -17 -17 -41.5t-38 -49t-26 -36.5q7 -7 20 -7q37 36 59 73.5t22 67.5q0 35 -27.5 61t-66.5 26q-27 0 -62 -21t-62.5 -46t-60.5 -46t-58 -21q-47 0 -47 67q0 8 3 22t10.5 34t23.5 40t37 31q6 -5 17.5 -19.5t19.5 -21t17 -6.5q299 143 430 190q22 -5 45 -5
q84 0 143 59t59 142.5t-59 142.5t-143 59zM309 216q-51 51 -51 58l224 205q34 -53 61 -93t28 -39q-175 -85 -262 -131zM597 353l-94 140q0 1 17 18.5t34.5 35t17.5 16.5q-1 -19 10.5 -54t28.5 -57q24 -32 69 -60q1 -1 -20 -10l-42 -20zM774 410q-67 0 -114.5 47.5t-47.5 114
t47.5 113.5t114.5 47t114.5 -47t47.5 -113.5t-47.5 -114t-114.5 -47.5z" />
    <glyph glyph-name="uniE60D" unicode="&#xe60d;" 
d="M841 45h-658q-27 0 -46 19t-19 46v636l-22 -22h745q27 0 46 -19.5t19 -46.5v-560q0 -9 6.5 -15.5t15.5 -6.5t15.5 6.5t6.5 15.5v560q0 45 -32 77.5t-77 32.5h-745q-9 0 -15.5 -6.5t-6.5 -15.5v-636q0 -45 32 -77t77 -32h658q9 0 15.5 6.5t6.5 15.5t-6.5 15.5t-15.5 6.5v0
zM841 45zM271 735v-735h44v735h-44v0zM271 735zM490 735v-735h44v735h-44v0zM490 735zM709 735v-735h44v735h-44v0zM709 735z" />
    <glyph glyph-name="uniE60E" unicode="&#xe60e;" 
d="M267 749q-12 17 -35 18.5t-35 -8.5q-15 -10 -19.5 -30.5t7.5 -42.5q8 -12 23 -33.5t26 -36.5l11 -16q-23 8 -44 -6q-15 -10 -19 -30.5t3 -32.5l25 -42q-17 6 -37 -8q-18 -12 -22 -31t6 -35l27 -41q-24 3 -42 -10q-14 -11 -18.5 -28t4.5 -34q13 -21 79 -115l5 -5
q3 -3 5 -4l3 -1l-10 -39q-5 -21 5.5 -34.5t30.5 -18.5q6 -2 41.5 -11t81 -21t90 -23.5t75.5 -19.5l30 -8q17 -5 35.5 3t24.5 29l15 55q10 1 25.5 5.5t49.5 23t52 43.5q39 92 54 189q-11 39 -29.5 70.5t-31.5 43.5l-14 12l22 78q5 21 -4 39t-29 23l-326 87q-15 4 -32.5 -5
t-23.5 -27l-8 -31l-16 22q-17 23 -36 50t-25 37zM802 635q8 -12 12 -32t4 -21q3 -8 13.5 -7t12.5 11q2 8 -4 29t-14 32q-9 13 -25.5 27t-30.5 16q-11 1 -14 -8.5t4 -14.5q2 -1 11 -6t17.5 -12t13.5 -14zM850 680q7 -10 12 -24t7 -22.5t4 -20.5l2 -12q2 -15 15 -14t12 18
q-3 53 -32 93q-16 23 -39 38.5t-37 18.5q-12 3 -17 -6.5t6 -16.5q1 -1 8.5 -5.5t14.5 -9t15.5 -10.5t16 -13t12.5 -14zM328 465q8 -12 5 -26t-15 -21q-11 -8 -25 -4.5t-21 15.5l-68 104q-7 12 -4.5 25.5t14.5 21.5q11 7 25 4t22 -15zM301 357q8 -12 5.5 -26t-13.5 -22
t-25 -5.5t-22 14.5l-71 101q-9 12 -6.5 26t13.5 22t25 5t22 -14zM273 241q8 -12 6 -26t-14 -21q-11 -8 -25 -5.5t-22 14.5l-70 101q-9 12 -6.5 26t13.5 22q12 7 25.5 4.5t21.5 -14.5zM338 617l-22 -83l-115 162q-9 11 -6.5 25t13.5 22t25 5.5t22 -14.5zM378 663q2 9 11 13
t18 1q4 -1 82 -22t157 -42.5t82 -22.5q18 -4 13 -24l-24 -92q-26 -25 -32 -52t4 -55q-82 -299 -86 -315q-4 -12 -13.5 -17.5t-21.5 -2.5q-2 0 -81 20.5t-153 39.5t-81 21q-19 5 -15 23l8 35q4 0 9.5 0.5t18.5 9t20 23.5q4 8 4.5 15.5t-3 16.5t-5.5 13t-9 14l-7 10l4 14
q3 0 9 1t18.5 10.5t18.5 25.5q3 14 -2 29.5t-12 23.5l-7 8l4 13q3 0 8.5 0.5t17 9t16.5 24.5q2 5 2.5 10.5t-0.5 10.5t-2.5 9t-4.5 9.5t-4 8t-4.5 7.5t-4.5 6l3 9q2 8 6 22t8.5 31.5t9.5 35t9 32.5t7 26t4 14zM599 157q-4 -17 -19 -25.5t-32 -4.5l-214 55q-17 5 -25.5 20
t-4.5 32l86 332q4 17 19.5 26t32.5 5l213 -55q17 -5 26 -20t4 -32zM632 588q-3 -11 -14 -8l-126 34q-11 3 -8 13q3 11 14 8l126 -34q10 -2 8 -13v0zM455 112q0 -12 -9 -21t-21 -9t-21 9t-9 21t9 21t21 9t21 -9t9 -21zM734 461q5 -4 13.5 -11.5t26 -36t27.5 -62.5
q-4 -42 -21 -99.5t-33 -85.5q-14 -19 -40 -34t-45 -20l-19 -6l60 230q9 -12 16 -23q5 -6 12.5 -2t3.5 12q-1 0 -11.5 16.5t-17.5 33t-5 32t10 29.5t16 21zM734 461z" />
    <glyph glyph-name="uniE60F" unicode="&#xe60f;" 
d="M873 747q0 -8 -6 -14t-14 -6h-518q-8 0 -14 6t-6 14q0 9 6 15t14 6h518q8 0 14 -6t6 -15v0zM873 747zM238 747q0 -8 -6 -14t-14 -6h-75q-9 0 -15 6t-6 14q0 9 6 15t15 6h75q8 0 14 -6t6 -15v0zM238 747zM969 613q0 -9 -6 -14.5t-14 -5.5h-518q-8 0 -14 5.5t-6 14.5
q0 8 6 14t14 6h518q8 0 14 -6t6 -14v0zM969 613zM334 613q0 -9 -6 -14.5t-14 -5.5h-75q-9 0 -14.5 5.5t-5.5 14.5q0 8 5.5 14t14.5 6h75q8 0 14 -6t6 -14v0zM334 613zM805 459q0 -9 -5.5 -14.5t-14.5 -5.5h-517q-9 0 -15 5.5t-6 14.5q0 8 6 14t15 6h517q9 0 14.5 -6t5.5 -14
v0zM805 459zM170 459q0 -9 -5.5 -14.5t-14.5 -5.5h-75q-8 0 -14 5.5t-6 14.5q0 8 6 14t14 6h75q9 0 14.5 -6t5.5 -14v0zM170 459zM969 304q0 -8 -6 -14t-14 -6h-518q-8 0 -14 6t-6 14q0 9 6 15t14 6h518q8 0 14 -6t6 -15v0zM969 304zM334 304q0 -8 -6 -14t-14 -6h-75
q-9 0 -14.5 6t-5.5 14q0 9 5.5 15t14.5 6h75q8 0 14 -6t6 -15v0zM334 304zM863 161q0 -8 -6 -14t-14 -6h-518q-8 0 -14 6t-6 14q0 9 6 15t14 6h518q8 0 14 -6t6 -15v0zM863 161zM228 161q0 -8 -6 -14t-14 -6h-75q-8 0 -14 6t-6 14q0 9 6 15t14 6h75q8 0 14 -6t6 -15v0z
M228 161zM902 21q0 -9 -6 -15t-15 -6h-517q-9 0 -14.5 6t-5.5 15q0 8 5.5 14t14.5 6h517q9 0 15 -6t6 -14v0zM902 21zM267 21q0 -9 -6 -15t-15 -6h-75q-8 0 -14 6t-6 15q0 8 6 14t14 6h75q9 0 15 -6t6 -14v0zM267 21z" />
    <glyph glyph-name="uniE610" unicode="&#xe610;" 
d="M959 561q0 5 -1 12q-4 28 -24 49q-25 24 -61 24h-81h-80q-6 0 -5 5v25v24q0 30 -17 53q-25 32 -65 33h-115h-114q-7 0 -13 -2q-30 -6 -49 -29t-19 -53v-50q0 -5 -1 -5.5t-6 -0.5h-151q-17 0 -23 -1q-28 -4 -48 -24q-24 -25 -23 -64v-468q0 -11 1 -17q5 -29 26 -48
q25 -22 60 -22h360h364q36 0 61 25q24 25 24 60v474zM371 702q0 11 8.5 19.5t19.5 8.5q109 -1 224 0q10 0 19 -8.5t9 -19.5q-1 -25 0 -51q0 -5 -6 -5h-134h-135q-5 0 -5 5v51zM903 85q0 -11 -8.5 -19t-20.5 -8h-364h-362q-22 0 -29 21v6v332q0 5 5 5q52 -1 102 0q5 0 5 -5
v-13v-12q0 -10 8.5 -18t19.5 -7.5t19 8t8 18.5v24q0 5 4 4h3h436q4 0 5 -0.5t1 -5.5v-21q0 -10 6.5 -18t16.5 -10q11 -1 20 5t12 17v4v25q0 5 5 5q51 -1 103 0q5 0 5 -5v-189v-143zM897 477q-103 1 -387 1h-385q-5 0 -5.5 0.5t-0.5 5.5v77q0 13 8 21t20 8h727q12 0 20.5 -8
t8.5 -21v-39v-39q0 -6 -6 -6z" />
    <glyph glyph-name="uniE611" unicode="&#xe611;" 
d="M754 731q24 0 40 -16t16 -39v-534l6 13l-122 -124l14 6h-438q-24 0 -40 16t-16 39v657l-19 -18h559zM176 768v-19v-657q0 -38 27.5 -65t66.5 -27h438h8l5 6l121 123l6 6v7v534q0 38 -27.5 65t-66.5 27h-559h-19zM176 768zM680 238q-23 0 -39.5 -16t-16.5 -39v-110
q0 -7 5.5 -12.5t13 -5.5t13 5.5t5.5 12.5v110q0 8 5.5 13t13.5 5h84q7 0 12.5 5.5t5.5 13t-5.5 13t-12.5 5.5h-84zM680 238zM709 603q8 0 13.5 5.5t5.5 13t-5.5 13t-13.5 5.5h-383q-8 0 -13.5 -5.5t-5.5 -13t5.5 -13t13.5 -5.5h383zM709 603zM709 494q8 0 13.5 5t5.5 12.5
t-5.5 13t-13.5 5.5h-383q-8 0 -13.5 -5.5t-5.5 -13t5.5 -12.5t13.5 -5h383zM709 494zM709 366q8 0 13.5 5t5.5 13t-5.5 13t-13.5 5h-383q-8 0 -13.5 -5t-5.5 -13t5.5 -13t13.5 -5h383zM709 366z" />
    <glyph glyph-name="uniE612" unicode="&#xe612;" 
d="M484 802q-114 0 -210 -56t-152 -152t-56 -210t56 -210t152 -152t210 -56t210 56t152 152t56 210t-56 210t-152 152t-210 56zM372 84q0 -12 -13 -13q-10 0 -16 1q-7 3 -6 10q2 8 9 7q10 -2 10 3v97h-13q-6 1 -6 9q0 7 7 8h36q4 0 5 -4q2 5 7 5h82q7 0 7 -8q-1 -8 -8 -9
h-36l-3 -11h24q15 0 14 -13v-63q0 -7 -8 -8q-8 1 -9 8v57q0 1 -2 1h-43q-2 0 -2 -1v-56q-1 -8 -9 -8t-8 8v62q0 13 11 13h14l3 11h-25q-4 0 -8 3q-2 -4 -7 -4h-7v-105zM480 72q-5 -8 -13 -3q-5 2 -14 8q-10 5 -15 7q-9 4 -7 11q-2 -4 -7 -8h-1l-1 -1q-14 -12 -32 -18
q-9 -3 -12 4t5 11q28 12 34 23q7 11 7 41q0 9 8 9t8 -9q2 -31 -7 -48q6 8 16 1q7 -4 19 -11q6 -4 8 -5q8 -4 4 -12zM556 74h-42q-11 0 -12 10v34q0 14 12 13h43q12 1 12 -13v-34q1 -10 -13 -10zM614 79q-9 0 -15 2q-6 3 -4 10q3 7 11 5q16 -3 14 13q-1 13 -17 31q-5 5 -1 16
q6 21 9 32h-17q-2 0 -2 -2v-110q-1 -8 -8 -9q-8 1 -9 9v65q-2 -3 -5 -3h-69q-7 1 -7 9t7 8h15q-1 1 -9 15q-3 8 4 11h-7q-7 1 -7 9t7 8h22q-1 2 -1 4q-2 6 5 10q9 3 11 -3t5 -11h20q7 0 7 -8t-7 -9h-47q4 -2 10 -17q2 -6 -1 -9h13q1 2 2 5q4 9 5 15q3 6 11 5q7 -3 5 -10
q-1 -3 -2 -7q-2 -5 -3 -8h11q3 0 5 -2v42q0 12 9 11h37q14 0 11 -15q0 -1 -3 -11q-5 -15 -7 -22q-2 -6 -2 -8q1 -2 4 -6q13 -19 14 -37q0 -28 -24 -28zM647 429.5q-6 -5.5 -13.5 -5.5t-12.5 5l-1 1l-117 117v-280q0 -7 -6 -12t-14 -5t-13 5t-5 12v2l-1 278l-116 -117
q-1 0 -2 -1q-5 -5 -12.5 -5t-13 5.5t-6 13.5t4.5 13l148 148q4 5 9 7q4 1 7 1h1v1v-1q4 1 7 -1q6 -2 9 -7l148 -148q5 -5 5 -13t-6 -13.5zM637 658h-305q-7 0 -12 5t-5 12t5 12t12 5h305q7 0 12 -5t5 -12t-5 -12t-12 -5zM549 114h-28q-2 0 -2 -2v-19q0 -3 2 -3h28q3 1 3 3
v19q0 2 -3 2z" />
    <glyph glyph-name="uniE613" unicode="&#xe613;" 
d="M1012 395l-1 3q-220 327 -487 327q-60 0 -121.5 -18t-110 -46.5t-94 -64.5t-78 -69.5t-58.5 -64.5t-37.5 -47.5t-12.5 -19.5q-16 -29 0 -59l2 -4q240 -320 498 -320q105 0 208 52q60 32 90 57q7 7 7 18t-7.5 18.5t-18.5 7.5q-7 0 -14 -6q-61 -40 -94 -56
q-85 -40 -171 -40q-232 0 -456 297q-2 6 1 12q2 3 12 17.5t34.5 43.5t54 59.5t71.5 63.5t86 59t99.5 43t109.5 17q240 0 444 -304q0 -2 1 -3l-2 -4q-11 -16 -49 -63t-47 -57q-11 -12 -11 -20q0 -11 7.5 -18.5t18 -7.5t18.5 8q7 7 50 59.5t55 70.5l1 2q20 23 2 57zM393 372
q0 -47 36 -82t83 -35q48 0 83 34.5t35 82t-35 82t-83 34.5q-47 0 -83 -35t-36 -81zM580 372q0 -26 -20.5 -46t-47.5 -20t-47.5 20t-20.5 45.5t20.5 45.5t47.5 20t47.5 -20t20.5 -45z" />
    <glyph glyph-name="uniE614" unicode="&#xe614;" 
d="M545 384l332 343q7 7 6.5 17t-7.5 17t-17 6.5t-17 -7.5l-330 -341l-330 341q-7 7 -17 7.5t-17 -6.5t-7.5 -17t6.5 -17l332 -343l-332 -343q-7 -7 -6.5 -17t7.5 -17t17 -6.5t17 7.5l330 342l330 -342q7 -7 17 -7.5t17 6.5t7.5 17t-6.5 17z" />
    <glyph glyph-name="uniE615" unicode="&#xe615;" 
d="M829 768h-731h-24v-25v-619q0 -51 35.5 -87.5t85.5 -36.5h731h24v25v223q0 10 -7 17.5t-17 7.5t-17 -7.5t-7 -17.5v-198h-707q-30 0 -51.5 21.5t-21.5 52.5v594h707q30 0 51.5 -21.5t21.5 -52.5v-210l-245 -181l-181 115l-16 10l-14 -14l-195 -198q-7 -7 -7 -17t7 -17.5
t17.5 -7.5t17.5 7l181 184l178 -113l14 -9l13 10l268 198l10 8v12v223q0 51 -35.5 87.5t-85.5 36.5zM366 532.5q0 35.5 -25 61t-60.5 25.5t-60.5 -25.5t-25 -61t25 -61t60.5 -25.5t60.5 25.5t25 61zM244 532.5q0 15.5 10.5 26.5t26 11t26 -11t10.5 -26.5t-10.5 -26.5
t-26 -11t-26 11t-10.5 26.5z" />
    <glyph glyph-name="uniE616" unicode="&#xe616;" 
d="M416 461h20v19v268v20h-20h-267h-19v-20v-268v-19h19h267zM168 499v230h229v-230h-229zM149 307h-19v-19v-230q0 -24 16.5 -41t40.5 -17h229h20v20v268v19h-20h-267zM168 58v211h229v-230h-210q-8 0 -13.5 5.5t-5.5 13.5zM875 461h19v19v230q0 24 -16.5 41t-40.5 17h-229
h-20v-20v-268v-19h20h267zM856 710v-211h-229v230h210q8 0 13.5 -5.5t5.5 -13.5zM608 307h-20v-19v-268v-20h20h267h19v20v268v19h-19h-267zM856 269v-230h-229v230h229zM512 461q8 0 13.5 5.5t5.5 13.5v211q0 8 -5.5 13.5t-13.5 5.5t-13.5 -5.5t-5.5 -13.5v-211
q0 -8 5.5 -13.5t13.5 -5.5zM550 269q-8 0 -13.5 -5.5t-5.5 -13.5v-230q0 -8 5.5 -14t13.5 -6t13.5 6t5.5 14v230q0 8 -5.5 13.5t-13.5 5.5zM474 192q-8 0 -13.5 -5.5t-5.5 -13.5v-153q0 -8 5.5 -14t13.5 -6t13.5 6t5.5 14v153q0 8 -5.5 13.5t-13.5 5.5zM894 403h-764
q-8 0 -14 -5.5t-6 -13.5t6 -13.5t14 -5.5h764q8 0 14 5.5t6 13.5t-6 13.5t-14 5.5z" />
    <glyph glyph-name="uniE617" unicode="&#xe617;" 
d="M692 768q-52 0 -99.5 -25t-80.5 -70q-33 45 -80.5 70t-99.5 25q-96 0 -164.5 -74.5t-68.5 -179.5q0 -39 12 -77.5t23.5 -59t32.5 -52.5q24 -39 65.5 -85.5t79.5 -82t81 -73t60.5 -51.5t28.5 -22q14 -11 30 -11t30 11q11 8 28.5 22t60.5 51.5t81 73t79.5 82t65.5 85.5
q21 32 32.5 52.5t23.5 59t12 77.5q0 105 -68.5 179.5t-164.5 74.5v0zM815 357q-23 -36 -64 -81.5t-78 -80t-79 -71t-57.5 -48.5t-24.5 -19q-9 7 -24.5 19t-57.5 48.5t-79 71t-78 80t-64 81.5q-19 30 -29.5 49t-19.5 48.5t-9 59.5q0 82 53 139.5t128 57.5q54 0 98.5 -32.5
t65.5 -84.5h1q3 -12 15 -12t15 12h1q21 53 65.5 85t98.5 32q75 0 128 -57.5t53 -139.5q0 -30 -9 -59.5t-19.5 -48.5t-29.5 -49v0zM815 357z" />
    <glyph glyph-name="uniE618" unicode="&#xe618;" 
d="M891 467l-94 22q0 1 -1 3l53 84l9 12l-11 11l-108 103l-11 11l-12 -8l-79 -50q-3 2 -7 3l-20 95l-3 15h-15h-151h-14l-4 -15l-23 -91l-85 52l-13 7l-10 -10l-106 -105l-11 -11l9 -13l50 -76q0 -1 -1 -3l-100 -23l-14 -3v-15v-147v-16l15 -3l93 -19q1 -1 1 -2l-54 -88
l-8 -12l11 -11l106 -104l11 -10l12 8l84 53l24 -96l4 -15h14h151h15l4 15l19 91l2 1l90 -54l13 -7l10 10l106 104l12 11l-9 13l-54 79l99 20l15 3v16v147v15zM720 93l-86 51l-8 5l-8 -4q-10 -4 -19 -7l-10 -4l-3 -10l-18 -86h-121l-23 91l-2 10l-9 3q-8 4 -17 7l-9 5l-9 -6
l-79 -51l-85 83l51 83l6 8l-4 10q-5 9 -8 19l-4 10l-10 2l-89 18v117l94 22l10 2l3 9q4 10 9 19l5 10l-6 9l-48 72l85 84l82 -50l8 -4l9 3q7 3 15 6l10 3l2 10l22 88h121l19 -89l2 -10l10 -4q11 -4 23 -10l9 -4l9 5l75 47l86 -82l-51 -79l-5 -9l4 -9q4 -9 7 -19l4 -10l10 -2
l89 -21v-117l-94 -19l-10 -2l-4 -9q-3 -8 -7 -16l-5 -10l6 -9l51 -76zM521 543q-66 0 -112.5 -46.5t-46.5 -112.5t46.5 -112.5t112.5 -46.5q34 0 65 14q7 3 10 10t-0.5 14t-10.5 10t-14 0q-24 -11 -50 -11q-50 0 -85.5 36t-35.5 86t35.5 86t86 36t86 -36t35.5 -86
q0 -13 -3 -26q-1 -8 3 -14.5t11.5 -8t14 2.5t8.5 12q3 17 3 34q0 66 -46.5 112.5t-112.5 46.5z" />
    <glyph glyph-name="uniE619" unicode="&#xe619;" 
d="M949 176l-320 175q8 18 8 36q0 39 -29.5 68t-69.5 29q-47 0 -78 -40l-165 90q127 105 253 105q199 0 369 -253v-6q-10 -13 -41.5 -52.5t-38.5 -47.5q-9 -10 -9 -17q0 -8 6 -14.5t15 -6.5t15 7q6 5 42 49t46 59v1q17 20 2 48l-1 2q-182 273 -405 273q-148 0 -293 -125
l-159 87q-8 4 -17 1.5t-13.5 -10.5t-1.5 -17t11 -13l146 -80q-28 -27 -53 -57t-35 -43.5t-11 -17.5q-13 -24 0 -49l2 -3q199 -267 414 -267q88 0 173 44q50 26 75 47q6 5 6 15q0 9 -6.5 15t-14.5 6q-7 0 -13 -4q-50 -34 -78 -47q-70 -33 -142 -33q-193 0 -379 248q-2 4 0 9
q2 4 12 17.5t35 43t53 55.5l182 -100q-2 -9 -2 -16q0 -39 30 -68t69 -29q36 0 65 25l325 -178q8 -5 17 -2t13.5 11t1.5 16.5t-11 13.5zM538 441q22 0 39 -16.5t17 -37.5q0 -7 -2 -16l-95 52q18 18 41 18zM538 332q-20 0 -36.5 14.5t-19.5 33.5l79 -43q-12 -5 -23 -5z" />
    <glyph glyph-name="uniE61A" unicode="&#xe61a;" 
d="M466 576l-331 -365q-7 -8 -6.5 -18.5t8 -17.5t18 -6.5t17.5 8.5l331 365q7 7 15 7t14 -7l320 -365q6 -8 16.5 -8.5t18.5 6.5t8.5 17t-6.5 18l-319 365q-21 24 -51.5 24.5t-52.5 -23.5zM466 576z" />
    <glyph glyph-name="uniE61B" unicode="&#xe61b;" 
d="M466 192q22 -24 52.5 -23.5t51.5 24.5l319 365q7 8 6.5 18t-8.5 17t-18.5 6.5t-16.5 -8.5l-320 -365q-6 -7 -14 -7t-15 7l-331 365q-7 8 -17.5 8.5t-18 -6.5t-8 -17.5t6.5 -18.5zM466 192z" />
    <glyph glyph-name="uniE61C" unicode="&#xe61c;" 
d="M383 513q0 -16 11 -26.5t26 -10.5t26 10.5t11 26t-11 26t-26 10.5t-26 -10.5t-11 -25.5zM383 513zM255 513q0 -16 10.5 -26.5t26 -10.5t26 10.5t10.5 26t-10.5 26t-26 10.5t-26 -10.5t-10.5 -25.5zM255 513zM549 476q15 0 26 10.5t11 26t-11 26t-26 10.5t-26 -10.5
t-11 -26t11 -26t26 -10.5zM549 476zM712 513q0 105 -85.5 180t-206.5 75t-206.5 -75t-85.5 -180q0 -59 29 -111t82 -89v-131q0 -10 9 -15q3 -1 7 -1q5 0 9 3l121 91q19 -2 35 -2q121 0 206.5 74.5t85.5 180.5zM383 292q-7 1 -12 -3l-100 -75v108q0 9 -8 13q-49 32 -76 78.5
t-27 99.5q0 92 76.5 157.5t183.5 65.5t183.5 -65.5t76.5 -158t-76 -157.5t-184 -65q-16 0 -37 2zM383 292zM793 542q-13 9 -22.5 -4t3.5 -22q42 -32 66 -76t24 -93q0 -52 -27 -98.5t-76 -78.5q-8 -5 -8 -14v-107l-100 75q-5 4 -12 3q-21 -3 -37 -3q-112 0 -189 71
q-12 10 -23 -1.5t1 -22.5q86 -79 211 -79q16 0 35 2l121 -90q4 -4 9 -4q4 0 7 2q9 4 9 14v132q53 36 82 88t29 111q0 56 -27 107t-76 88zM793 542z" />
    <glyph glyph-name="uniE61D" unicode="&#xe61d;" 
d="M408 276l137 -276l351 768l-768 -369l280 -123v0zM416 306l-214 95l588 282l-374 -377v0zM544 71l-106 214l377 380l-271 -594v0zM544 71z" />
    <glyph glyph-name="uniE61E" unicode="&#xe61e;" 
d="M790 569v1q-50 89 -140.5 143.5t-195.5 54.5t-193 -51.5t-139.5 -140t-51.5 -192.5q0 -137 85.5 -242t216.5 -133q40 -9 82 -9q9 0 15 6.5t6 15.5t-6 15.5t-15 6.5q-37 0 -73 7q-116 26 -192 119.5t-76 213.5q0 92 46 170.5t124 124t171 45.5t174 -48.5t126 -129.5v-1
q7 -9 18 -9q9 0 15.5 6.5t6.5 15.5q0 6 -4 11v0zM617 127l247 339q10 15 28 17.5t32 -7.5l12 -9q15 -10 17.5 -28t-7.5 -32l-247 -340zM608 115l82 -60l-99 -50zM294 449q21 0 36 15t15 36t-15 35.5t-36 14.5t-35.5 -14.5t-14.5 -35.5t14.5 -36t35.5 -15zM598 449
q21 0 36 15t15 36t-15 35.5t-36 14.5t-35.5 -14.5t-14.5 -35.5t14.5 -36t35.5 -15zM252 296q20 -67 75.5 -109t126 -42t126 42t75.5 109q3 11 -2.5 21.5t-17 14t-22 -2.5t-14.5 -17q-14 -48 -54.5 -78.5t-91 -30.5t-91 30.5t-54.5 78.5q-4 12 -14.5 18t-22 2.5t-17 -14
t-2.5 -22.5zM252 296z" />
    <glyph glyph-name="uniE61F" unicode="&#xe61f;" 
d="M925 50h-802v410q0 10 -7 17.5t-17 7.5t-17 -7.5t-7 -17.5v-435q0 -10 7 -17.5t17 -7.5h826q10 0 17 7.5t7 18t-7 17.5t-17 7zM239 100h43q24 0 41.5 18t17.5 44v99q0 26 -17.5 44t-41.5 18h-43q-25 0 -42.5 -18t-17.5 -44v-99q0 -26 17.5 -44t42.5 -18zM204 263
q0 6 4 9.5t9 3.5t8.5 -3.5t3.5 -9.5v-104q0 -5 -3.5 -9t-8.5 -4t-9 4t-4 9v104zM442 100h42q25 0 42.5 18t17.5 44v248q0 25 -17.5 43t-42.5 18h-42q-25 0 -42.5 -18t-17.5 -43v-248q0 -26 17.5 -44t42.5 -18zM407 413q0 5 3.5 9t9 4t9 -4t3.5 -9v-171q0 -5 -3.5 -9t-9 -4
t-9 4t-3.5 9v171zM644 100h42q25 0 42.5 18t17.5 44v396q0 25 -17.5 43t-42.5 18h-42q-25 0 -42.5 -18t-17.5 -43v-396q0 -26 17.5 -44t42.5 -18zM610 563q0 5 3.5 9t9 4t9 -4t3.5 -9v-238q0 -5 -4 -8.5t-9 -3.5t-8.5 3.5t-3.5 8.5v238zM847 100h42q25 0 42.5 18t17.5 44
v544q0 26 -17.5 44t-42.5 18h-42q-25 0 -42.5 -18t-17.5 -44v-544q0 -26 17.5 -44t42.5 -18zM813 713q0 5 3.5 9t8.5 4t9 -4t4 -9v-304q0 -6 -4 -9.5t-9 -3.5t-8.5 3.5t-3.5 9.5v304zM813 713z" />
    <glyph glyph-name="uniE620" unicode="&#xe620;" 
d="M541 43l-203 47l-35 56l124 543l56 36l203 -47l35 -56l-124 -543zM347 101l192 -43l46 29l122 533l-30 47l-191 43l-47 -29l-122 -533zM347 101zM548 0l-235 54l-53 84l131 577l85 53l235 -54l53 -84l-131 -577zM322 66l224 -51l75 47l129 565l-48 75l-224 51l-75 -47
l-129 -565zM322 66zM570 592l15 -3q14 9 15 10h3q3 -1 6.5 -6.5t4.5 -7.5q0 -1 2 -5t1.5 -7.5t-8.5 -1.5l-41 9l-16 -68l27 -6q12 9 14 10q3 1 5 1q4 -1 10 -12t5 -15.5t-6 -3.5l-125 28l-10 2l-3 16l10 -4l44 -10l25 109l3 18q0 1 1 2h3q10 -4 21 -8t10 -8q0 -2 -8 -6z
M570 592zM527 403l15 -3q14 9 15.5 9.5t2.5 0.5q3 -1 6 -6q4 -6 5 -8q1 -1 2 -5q2 -4 1.5 -7.5t-8.5 -1.5l-41 9l-16 -68l27 -6q11 9 14 10t5 1q4 -1 10 -12t5 -15.5t-6 -3.5l-125 29l-10 1l-3 16l10 -3l44 -10l25 109l3 17q0 1 1 2h3q10 -3 21 -7.5t10 -8.5q0 -2 -8 -5z
M527 403zM494 183q2 -5 1 -7.5t-5 -1.5l-33 7q7 -7 10 -14t2 -13q-1 -7 -5.5 -9t-8.5 -1q-4 0 -6 2q-2 3 -3 5t1 6q0 2 1.5 5t2 5t0.5 5q0 4 -1 7l-1 2v2l-7 2l-8 1l-2 8q-17 -4 -30 -6h-6q-5 -1 -5 1t0.5 3.5t2.5 2.5l6 3q18 7 34 15t23 16q8 8 10 7h1l4 -2l3 3l-20 5
q3 -6 2 -10q-2 -4 -5 -5.5t-7 -1.5q-4 1 -6 4t-1.5 5t2 5t1.5 4v2h-1q-14 -8 -27 -13l-5 -2q-4 -2 -4.5 0.5t1.5 5.5l5 4q5 5 12 14q6 10 10 16l2 4l1 3q1 1 4 0t14 -8q11 -6 9 -10q-1 -2 -6 -2l-7 -2l11 -3q10 7 13 6.5t8 -14.5l9 14l3 5q0 1 1 2h2q7 -3 15 -8t7 -8
q0 -3 -7 -3l-7 -4l16 -4q4 2 8 5t6 3q1 -1 2.5 -2t4.5 -6t4 -9t0 -5q-1 -2 -4 -1l-27 6q3 -5 4 -8t0 -6t-4 -5.5t-8 -1.5t-7 4.5t-1 6.5q0 1 1 4t1 4v5l-8 2q-11 -5 -12 -5q9 -6 10 -7.5t0.5 -3t-5.5 -1.5q2 -1 8.5 -8t15.5 -13q11 -6 24 -10l3 -1q3 -1 4.5 -2t0.5 -2
q0 -3 -0.5 -3.5t-2.5 -1.5l-4 -1q-1 -1 -4 -3.5t-4.5 -7.5t-3 -5.5t-4.5 2.5q-12 8 -24 22zM463 135q10 17 15 28l3 7q1 2 2 2.5t3 -0.5q6 -3 13.5 -9t6.5 -9t-8 -4q-3 -2 -6 -5l-7 -7q-5 -4 -7 -6l12 -3q10 7 12 8t4 1q4 -1 9 -11t4 -13q-2 -3 -7 -2l-111 26l-12 2l-4 14
l10 -4zM422 180v3q-1 1 0 2t2.5 1.5t3.5 -1.5l2 -2q2 -2 4 -6q3 -5 5 -8q1 -3 2 -8t0 -9t-4.5 -6.5t-8.5 -1.5t-7 4q-2 2 -2 4v5l2 7q1 2 1 3q1 3 1 6q0 4 -1 7zM486 195q-3 6 -8 19q-9 -6 -17 -10t-19 -7l32 -8q8 8 12 6zM486 195z" />
    <glyph glyph-name="uniE621" unicode="&#xe621;" 
d="M932 358v230h-260v180h-580v-230h260v-128h-260v-230h260v-180h580v230h-260v128h260zM881 410h-478v127h478v-127zM143 717h478v-128h-478v128zM143 358h478v-127h-478v127zM881 51h-478v128h478v-128z" />
    <glyph glyph-name="uniE622" unicode="&#xe622;" 
d="M355 240q-47 0 -89 21q-40 20 -71 57q-66 77 -66 185.5t66 185.5q31 37 71 58q42 21 88.5 21t88.5 -21q40 -21 71 -58q66 -77 66 -185.5t-66 -185.5q-31 -37 -71 -57q-42 -21 -88 -21zM355 740q-82 0 -140 -69.5t-58 -167t58 -167t139.5 -69.5t139.5 69.5t58 167t-58 167
t-139 69.5zM355 740zM703 234q-61 0 -110 38q-48 38 -69 102q-4 13 9 17.5t18 -8.5q18 -55 59.5 -88t92.5 -33h1q68 0 115.5 58t47.5 140q0 5 4 9.5t10 4.5q5 0 9.5 -4t4.5 -10q0 -92 -55 -158q-56 -67 -136 -68h-1zM703 234zM881 446q-6 0 -10 4t-4 10q-1 82 -50 139
q-49 56 -116 56q-40 -1 -76 -22t-55 -54q-7 -12 -19 -5t-5 19q23 40 65.5 64.5t89.5 24.5q80 1 137 -65q56 -65 57 -157q0 -6 -4 -10t-10 -4v0zM881 446zM350 0q-1 0 -3 1q-7 4 -4 11q13 27 17 53t2.5 40t-6.5 36q-10 48 -1 76q2 7 9.5 4.5t5.5 -9.5q-8 -24 1 -67
q5 -25 7 -40t-2.5 -43t-18.5 -57q-2 -5 -7 -5zM350 0zM696 50h-2q-6 2 -4 8q12 37 4 83q-6 38 0 64q2 6 8 4.5t4 -7.5q-6 -23 0 -59q9 -49 -4 -89q-1 -4 -6 -4zM696 50zM209 553q-7 0 -7 7q1 36 27 73q30 40 72 51q7 2 8.5 -4.5t-5.5 -8.5q-38 -10 -62.5 -45t-25.5 -66
q0 -7 -7 -7zM209 553zM742 295q52 14 70 62zM333 211q-5 0 -7 4.5t1 8.5l30 33q2 3 6 3q3 0 6 -2l30 -34q3 -3 1 -8t-7 -5h-60v0zM363 241l-12 -15l25 1zM363 241zM719 205h-38q-4 0 -5.5 3.5t1.5 6.5l19 20q2 2 4.5 2t4.5 -2l18 -20q3 -3 1.5 -6.5t-5.5 -3.5zM695 217h10
l-5 5zM695 217z" />
    <glyph glyph-name="uniE623" unicode="&#xe623;" 
d="M831 298q8 0 13.5 6t5.5 15v367q0 10 -3 22q-1 2 -1 3l-1 6q-9 23 -26.5 37t-40.5 14h-532q-20 0 -38 -12l-2 -2q-32 -24 -32 -68v-604q0 -34 21 -58t51 -24h532q30 0 51 24t21 58v67q0 9 -5.5 15.5t-13.5 6.5t-13.5 -6.5t-5.5 -15.5v0v-63q0 -18 -11 -30.5t-26 -12.5
h-370h-156q-15 0 -26 12.5t-11 30.5v596q0 9 3 18l297 -184l300 172v-6v-363q0 -9 5.5 -15t13.5 -6v0zM510 564l-253 161h518q5 0 11 -2l-276 -159v0zM627 263q8 0 13.5 6.5t5.5 15.5t-5.5 15t-13.5 6h-86l84 113q6 6 6.5 14.5t-5 15t-13 7t-13.5 -4.5l-79 -105l-82 109
q-6 6 -13.5 5.5t-12.5 -7t-4.5 -15.5t5.5 -15l89 -116v-1h-89q-8 0 -13.5 -6t-5.5 -15t5.5 -15.5t13.5 -6.5h89v-43h-89q-8 0 -13.5 -6t-5.5 -15t5.5 -15t13.5 -6v-1h89v-50q0 -8 5.5 -14.5t13.5 -6.5t13.5 6.5t5.5 14.5v50h86v1q8 0 13.5 6t5.5 15t-5.5 15t-13.5 6h-86v43
h86v0zM627 263z" />
    <glyph glyph-name="uniE624" unicode="&#xe624;" 
d="M512 693q-128 0 -218.5 -90.5t-90.5 -218.5t90.5 -218.5t218.5 -90.5t218.5 90.5t90.5 218.5t-90.5 218.5t-218.5 90.5zM512 107q-115 0 -196 81t-81 196t81 196t196 81t196 -81t81 -196t-81 -196t-196 -81zM512 107zM512 768q-104 0 -192.5 -51.5t-140 -140
t-51.5 -192.5t51.5 -192.5t140 -140t192.5 -51.5t192.5 51.5t140 140t51.5 192.5t-51.5 192.5t-140 140t-192.5 51.5zM512 43q-93 0 -171.5 45.5t-124 124t-45.5 171.5t45.5 171.5t124 124t171.5 45.5t171.5 -45.5t124 -124t45.5 -171.5t-45.5 -171.5t-124 -124
t-171.5 -45.5zM512 43zM631 570q-7 -1 -13.5 -7t-9.5 -11l-3 -5l-93 -97l-91 97q-11 19 -24 23q-18 6 -24.5 0t-4.5 -14l2 -9l117 -131v-19h-97h-1q-7 0 -12 -5t-5 -12.5t5 -12.5t12 -5h1h97v-36h-97v-1h-1q-7 0 -12 -5t-5 -12t5 -12t12 -5h1h97v-73q0 -9 7 -16t16.5 -7
t16 7t6.5 16v-11v84h99v0h1q7 0 12 5t5 12t-5 12t-12 5v1h-100v36h99v0h1q7 0 12 5.5t5 12.5t-5 12t-12 5h-100v19l119 131q5 5 3 15q-1 13 -24 8zM631 570z" />
    <glyph glyph-name="uniE625" unicode="&#xe625;" 
d="M608 306v366q0 39 -28 67.5t-68 28.5t-68 -28.5t-28 -67.5v-366q-33 -23 -52.5 -59.5t-19.5 -78.5q0 -69 49 -118.5t119 -49.5t119 49.5t49 118.5q0 42 -19.5 78.5t-52.5 59.5zM512 24q-60 0 -102 42.5t-42 101.5q0 35 16.5 66.5t45.5 51.5l10 7v379q0 29 21 50.5
t51 21.5t51 -21.5t21 -50.5v-379l10 -7q29 -20 45.5 -51.5t16.5 -66.5q0 -59 -42.5 -101.5t-101.5 -42.5zM512 24zM548 257v261q-1 14 -11.5 24t-24.5 10t-24.5 -10t-11.5 -24v-261q-27 -11 -43.5 -35t-16.5 -54q0 -39 28 -67.5t68 -28.5t68 28.5t28 67.5q0 30 -16.5 54
t-43.5 35zM548 257z" />
    <glyph glyph-name="uniE626" unicode="&#xe626;" 
d="M264 119h-3q-17 2 -21 19l-102 461q-2 10 3.5 18.5t15 10.5t18 -3t10.5 -15l88 -396l205 402q4 9 13.5 12t18.5 -1.5t12 -14t-1 -18.5l-235 -462q-7 -13 -22 -13zM264 119zM659 120q-6 0 -13 1q-84 4 -126 53q-35 41 -29 97v4q2 10 10 16t18 5t16 -9t4 -18v-3
q-4 -36 17 -60q29 -34 92 -37q57 -3 101.5 22t57.5 60q6 13 3.5 24.5t-6.5 20t-13 16t-15.5 11.5t-13.5 8q-9 5 -50 16q-32 8 -49.5 14t-44 17t-44 25.5t-26.5 32.5q-17 33 -2 73q27 72 89 100q37 16 82 15t90 -18q25 -10 42.5 -27.5t25.5 -38t11 -38t2 -32.5
q-1 -10 -8.5 -16.5t-17.5 -6t-16.5 8.5t-6.5 18q0 1 0.5 7.5t-2 18t-7 22.5t-15.5 22t-26 17q-75 29 -134 3q-44 -19 -64 -72q-7 -20 0 -34q8 -15 34 -29t46 -20t53 -15q46 -13 60 -20q48 -24 66.5 -61.5t1.5 -78.5q-18 -47 -70.5 -80.5t-122.5 -33.5zM659 120zM991 663
v-486q0 -10 -7 -17t-16.5 -7t-16.5 7t-7 17v486q0 23 -17.5 40t-40.5 17h-748q-24 0 -41 -15.5t-17 -39.5v-560q0 -23 17 -40t41 -17h695q10 0 17 -7t7 -17t-7 -17t-17 -7h-695q-44 0 -74.5 31t-30.5 74v560q0 44 30.5 73.5t74.5 29.5h748q43 0 74 -31t31 -74zM991 663z" />
    <glyph glyph-name="uniE627" unicode="&#xe627;" 
d="M624 769v-585v-3v-4v-2q-3 -73 -61.5 -137t-149.5 -89q-74 -18 -138 -8.5t-111.5 47.5t-62.5 93q-21 85 39 165.5t168 110.5q73 19 139.5 7.5t112.5 -49.5v470q0 3 0.5 8t7 16t18.5 17t39 5t63 -14q59 -21 119 -33t90 -13l31 -2v-64l-85 8q-121 17 -219 56zM541 212
q-8 38 -44.5 62.5t-82.5 29t-95 -8.5q-71 -22 -120 -83t-36 -118q9 -38 45.5 -62.5t82.5 -29t94 8.5q71 22 120.5 83t35.5 118z" />
    <glyph glyph-name="uniE628" unicode="&#xe628;" 
d="M878 316q-15 57 -37 100.5t-43 65t-40 34.5t-31 16l-11 3q-15 3 -30 3q-30 0 -58 -9t-42 -18l-14 -9q-18 -19 -40 -19h-31q-7 26 -2 46.5t15.5 34.5t24 23t21.5 13t9 4v0q39 24 37 53q-2 16 -16.5 33.5t-32 30t-40 24.5t-31.5 16t-15 7l-11 -27h1q43 -18 78.5 -43.5
t37.5 -43.5q1 -10 -21 -23q-39 -16 -66.5 -53t-19.5 -88l-19 12q-49 37 -105 37h-9q-41 -4 -75.5 -29.5t-55 -58.5t-35 -65.5t-20.5 -54.5l-5 -22q-42 -204 12 -279q7 -10 13 -14q20 -16 42 -16q18 0 36 10t27 18.5t9 9.5l81 100q23 28 51 28l3 -1h194q8 0 16 -3.5t14 -8.5
t10.5 -10t7.5 -9l2 -3l78 -97q31 -32 68 -32q10 0 19.5 2.5t14.5 4.5l4 3q24 18 35.5 57t12 76.5t-4.5 82.5t-8 62t-5 26zM832 36q-10 -5 -22 -5q-24 0 -47 23l-75 94q-32 47 -74 47h-193h-4q-42 0 -73 -38l-81 -100q-24 -28 -50 -28q-12 0 -23 10l-3 2q-4 4 -8.5 10.5
t-11 27t-9 47.5t1 74t14.5 103q2 7 6 21.5t17.5 48t31 60.5t47.5 50t64 27h6q46 0 87 -32h1q33 -24 57 -24h40h1q32 0 59 25q43 29 95 29q12 0 25 -2q4 -1 11.5 -3.5t25.5 -15t34 -32t35 -58t32 -88.5q11 -48 16 -100t-2.5 -103.5t-30.5 -69.5zM677 428q-14 0 -24 -10
t-10 -24t10 -24t24 -10t24 10t10 24t-10 24t-24 10zM677 379q-6 0 -10 4.5t-4 10.5t4 10t10 4t10.5 -4t4.5 -10t-4.5 -10.5t-10.5 -4.5zM677 311q-14 0 -24 -10t-10 -24t10 -24t24 -10t24 10t10 24t-10 24t-24 10zM677 263q-6 0 -10 4t-4 10t4 10.5t10 4.5t10.5 -4.5
t4.5 -10.5t-4.5 -10t-10.5 -4zM599 369q-14 0 -24 -10t-10 -24t10 -24t24 -10t24 10t10 24t-10 24t-24 10zM599 321q-6 0 -10 4t-4 10t4 10.5t10 4.5t10.5 -4.5t4.5 -10.5t-4.5 -10t-10.5 -4zM755 369q-14 0 -24 -10t-10 -24t10 -24t24 -10t24 10t10 24t-10 24t-24 10z
M755 321q-6 0 -10.5 4t-4.5 10t4.5 10.5t10.5 4.5t10 -4.5t4 -10.5t-4 -10t-10 -4zM405 350h-53v53q0 6 -4.5 10.5t-10.5 4.5t-10 -4.5t-4 -10.5v-53h-54q-6 0 -10 -4.5t-4 -10.5t4 -10t10 -4h54v-54q0 -6 4 -10t10 -4t10.5 4t4.5 10v54h53q6 0 10.5 4t4.5 10t-4.5 10.5
t-10.5 4.5z" />
    <glyph glyph-name="uniE629" unicode="&#xe629;" 
d="M424 463q-8 -18 -17 -45q4 0 10.5 1t24 5.5t33.5 12t34.5 22.5t30.5 35q-19 28 -50 24q-13 -1 -26 -8q-8 8 -55.5 34.5t-82.5 60.5q-32 32 -57 81t-31 82q-27 -12 -56 -53t-45 -87t-9 -71q9 -31 30 -52t50 -30t58 -12.5t63 -0.5t56.5 7t46.5 9q-5 -7 -8 -15zM424 463z
M559 392q-25 -13 -51 -15.5t-43 1.5t-33.5 12.5t-21 12.5t-8.5 7q-8 -30 -11 -52q-13 -65 -10 -151.5t26 -145.5q3 -9 10 -16.5t13 -12.5t18.5 -10t17.5 -6.5t20 -5.5t16 -4q42 -12 86 0.5t59 32.5q8 25 -10.5 79.5t-45.5 132.5t-32 141v0zM559 392zM402 410v0v0zM402 410z
M898 222q-4 50 -39.5 94t-81 70.5t-97 46t-83.5 27.5t-44 10q-3 7 -9 16l-2 -2l-4 -6q-3 -4 -7.5 -9t-11 -10t-14 -11t-18 -11.5t-21.5 -10t-25.5 -8.5t-30.5 -6q11 -7 24.5 -13.5t34.5 -12.5t44.5 -3t44.5 17q0 5 1 24q3 -3 15.5 -15t20.5 -20.5t22 -26.5t27 -38
q24 -41 35 -93.5t10 -93.5q-1 -12 8.5 -19.5t20.5 -4.5q185 43 180 109zM898 222zM644 610q0 7 -6 12.5t-14 5.5q-5 0 -10 -3q-19 22 -47 22q-26 0 -44.5 -18.5t-18.5 -44.5t18.5 -44t44.5 -18t44.5 18t18.5 44q0 4 -1 9q15 3 15 17zM644 610z" />
    <glyph glyph-name="uniE62A" unicode="&#xe62a;" 
d="M86 450q7 -1 10 -9q9 0 23 -1q11 -1 32 -1q-1 9 -1 18q1 13 12 14q10 -1 10 -13q0 -10 1 -19q13 -1 29 -1q-6 8 -11 11q-5 5 -5 12q1 9 11 11q6 0 11 -5q7 -5 17 -19l-12 -10h7q13 0 14 -11q-1 -9 -13 -10h-47q3 -23 8 -37l4 -10q12 15 23 28q6 5 12 5q8 -1 9 -10
q0 -5 -4 -10q-14 -17 -28 -35q5 -7 11 -12q8 -9 27 -16l-11 -21q-26 9 -42 29q-11 -14 -22 -29l-17 14q13 19 26 36q-8 15 -12 34q-3 16 -5 35q-32 0 -58 2q-1 -11 -2 -28q8 2 18 3h4q14 0 21 -9q8 -10 8 -30v-9q0 -21 -9 -40q-2 -7 -11.5 -7t-9.5 10q9 22 9 37q0 17 -4 22
q-4 4 -12 4t-16 -3q-2 -34 -3 -72h-22q0 49 7 138q2 13 13 14zM314 446q17 0 17 -12q0 -8 -10 -9h-17v-1q0 -6 -1 -31v-35q7 2 13 4h5q12 0 13 -11q-1 -8 -10 -10q-8 -3 -31 -7q-17 -3 -36 -3v21l24 2q0 28 1 70q-17 0 -23 -1v21q12 2 55 2zM395 443q18 0 26 -11
q10 -9 11 -50v-6q-1 -33 -12 -71q-3 -8 -12 -8q-10 0 -10 9q11 39 11 70q0 32 -5 40q-5 5 -13 5h-9q-7 -22 -14 -49q-13 -46 -18 -74l-21 6q18 73 30 113q-11 -2 -21 -6l-5 21q15 6 32 9q5 14 8 21q4 8 12 8q10 -1 10 -10q0 -4 -2 -8t-4 -9h6zM608 399q16 0 17 -10
q-1 -10 -12 -11h-21q1 -62 1 -80h-23q0 51 -1 79q-36 -1 -61 -3q-6 -36 -11 -78l-21 5q6 41 11 71l-32 -2v21q15 2 35 4q6 32 9 45l-26 -2v20q37 7 123 8q15 0 16 -10q-1 -9 -11 -9q-6 -1 -11 -1v-3q0 -4 1 -44h17zM568 446q-27 -2 -46 -3q-1 -11 -5 -27l-4 -20q25 2 56 3
q-1 18 -1 31v16zM678 430q6 -1 9 -4q25 5 48 6h13q22 0 30 -2q15 -3 22 -10q7 -5 7 -21v-3q0 -10 -9 -17q-11 -10 -53 -10h-18h-12v-1q0 -2 -2 -5q38 1 90 1q13 0 14 -8q0 -8 -9 -9h-12q8 -4 21 -12l-10 -17q-10 6 -19 11q3 -4 3 -10t-2 -16q-2 -7 -13 -7q-7 0 -7 8
q1 6 2 11q0 6 -11 6q-8 0 -15 -1l2 -22l-19 -3q0 4 -1 11.5t-2 10.5q-10 -2 -20 -5l2 -14l-19 -4q-4 26 -5 31q0 9 8 9t11 -6q10 3 21 5q2 11 10 12q6 0 8 -5l2 -4q6 1 12 1h9q7 0 12 -1q-5 4 -5 9v1q-46 0 -74 -2q-14 -15 -30 -31l-15 12q7 10 15 18q-2 0 -8 -0.5t-9 -0.5
v18q15 1 35 2l9 9l-10 2q-21 7 -21 23v1q0 12 4 24q4 8 11 9zM805 463q14 0 15 -10q0 -9 -10 -10h-28q-2 -5 -4 -12l-21 5q1 4 2 7q-31 -1 -53 -3q1 -3 2 -7l-22 -4q-2 5 -3 10q-17 -1 -32 -2v20q12 1 28 2l-1 3q1 11 10 12q11 0 13 -12v-1q29 1 67 2q2 4 3 5q5 6 10 6
q10 0 10 -10v-1h14zM746 416q-33 0 -60 -7v-1q42 0 73 -3q6 -2 7 -7q0 -6 -8 -7q-42 1 -71 3q3 -4 9 -6q10 -3 45 -3q15 0 27 1q8 1 13 4q5 2 5 9q0 12 -10 15q-6 2 -30 2zM952 333l-6 -19q-25 7 -37 11q-9 2 -9 8q0 11 9 11q4 0 43 -11zM958 447q0 -7 -2 -16l-16 -74l-20 3
l12 85q2 16 14 16t12 -14z" />
    <glyph glyph-name="uniE62B" unicode="&#xe62b;" 
d="M516.5 895.5q-104.5 0.5 -199.5 -39t-164 -107.5t-110 -162.5t-42 -198.5t38.5 -199t107.5 -164t162.5 -110.5t198.5 -42t199 39t164 107.5t110.5 162.5t42.5 198.5t-39 199t-108 164t-162 110.5t-198.5 42zM508.5 -78.5q-94.5 0.5 -179.5 38t-146.5 100t-97.5 148.5
t-35.5 180t38 179.5t100 147t148.5 97t180 35t179.5 -38t147 -100t97.5 -148.5t35 -180t-38.5 -179.5t-99.5 -147t-148 -97t-180.5 -35zM430 141l282 226q8 6 8 15.5t-7 15.5l-279 231q-10 8 -22 2.5t-12 -18.5l-3 -456q0 -13 11.5 -18.5t21.5 2.5z" />
    <glyph glyph-name="uniE62C" unicode="&#xe62c;" 
d="M582 766q-18 0 -47 -14t-49 -27l-21 -14l-232 -163h-175q-58 -1 -58 -60v-213q0 -29 13.5 -42t44.5 -13h175l232 -163q9 -6 22 -15t44 -24.5t51 -15.5q58 0 58 109v546q0 32 -18.5 70.5t-39.5 38.5zM864 694q-9 10 -22 10t-22.5 -9.5t-10 -23.5t9.5 -24q5 -6 11 -13.5
t23.5 -35.5t30.5 -56t23.5 -71.5t10.5 -86.5t-10.5 -86.5t-23.5 -72t-30.5 -56t-23.5 -35t-11 -13.5q-10 -10 -9.5 -24t9.5 -23.5t23 -9.5q13 0 22 10q6 6 15 17t28.5 42t35 65t27.5 84.5t12 101.5t-12 101.5t-27.5 84.5t-35 65t-28.5 42t-15 17z" />
    <glyph glyph-name="uniE62D" unicode="&#xe62d;" 
d="M512 896q-139 0 -257 -68.5t-186.5 -186.5t-68.5 -257t68.5 -257t186.5 -186.5t257 -68.5t257 68.5t186.5 186.5t68.5 257t-68.5 257t-186.5 186.5t-257 68.5zM512 -64q-91 0 -174 35.5t-143 95.5t-95.5 143t-35.5 174t35.5 174t95.5 143t143 95.5t174 35.5t174 -35.5
t143 -95.5t95.5 -143t35.5 -174t-35.5 -174t-95.5 -143t-143 -95.5t-174 -35.5z" />
    <glyph glyph-name="uniE62E" unicode="&#xe62e;" 
d="M905 27q-21 60 -60 112q-38 50 -90 87q-72 52 -158 70q49 26 79 74.5t30 106.5q0 85 -59.5 145t-143.5 60t-143.5 -60t-59.5 -145q0 -60 31.5 -109.5t83.5 -74.5q-79 -19 -146 -67q-52 -37 -90 -87q-39 -52 -60 -112q-3 -8 0.5 -15.5t11.5 -10.5q3 -1 6 -1q14 0 19 14
q20 54 55 101q34 45 81 79q98 71 219.5 71t220.5 -71q47 -33 81 -79q36 -47 55 -101q3 -8 10.5 -11.5t15 -1t11 10t0.5 15.5zM337 477q0 70 48.5 119t117.5 49t117.5 -49t48.5 -118.5t-48.5 -119t-117.5 -49.5t-117.5 49.5t-48.5 118.5zM337 477zM244 308q26 0 44.5 18.5
t18.5 44.5t-18.5 44.5t-44.5 18.5h-5q-2 13 -2 26q0 113 78.5 192t189.5 79q78 0 148 -51t104 -130q2 -6 7.5 -9.5t29.5 -16.5q1 0 2 -1q4 -2 11.5 -6t10.5 -5v-136l-1 -1h-1q-15 -5 -29 -11h-3q-18 -7 -28 -11q-8 -3 -10.5 -4t-3.5 -2t-3 -2q-14 -6 -6 -20q4 -8 16 -8.5
t14 1.5q3 1 15.5 5t18.5 6q1 1 2 1q21 7 30 11q10 3 13 4l12 5v13v161v11l-10 5q-1 1 -10 5q-14 7 -21 11l-3 1q-13 7 -18 10q-3 2 -4 2q-38 87 -116.5 143t-166.5 56q-126 0 -215 -90t-89 -218q0 -20 2 -40q-22 -19 -22 -49q0 -26 18 -44.5t45 -18.5zM790 565v1v1v-1v-1z
M267 371q0 -10 -7 -16.5t-16.5 -6.5t-16.5 6.5t-7 16.5t7 16.5t16.5 6.5t16.5 -6.5t7 -16.5zM267 371z" />
    <glyph glyph-name="uniE62F" unicode="&#xe62f;" 
d="M931 619q-30 18 -69 0l-181 -88v36q0 40 -28.5 69t-68.5 29h-423q-40 0 -69 -24.5t-29 -59.5v-380q0 -42 17 -70t42 -28h39v39h-39q-2 0 -6.5 6t-9 20.5t-4.5 32.5v380q0 18 17.5 31.5t41.5 13.5h423q24 0 41 -17.5t17 -41.5v-366q0 -24 -17 -41.5t-41 -17.5h-301v-39
h301q40 0 68.5 28.5t28.5 69.5v36l181 -88q19 -10 37 -10t32 9q30 19 30 62v347q0 43 -30 62zM922 210q0 -21 -11.5 -28.5t-30.5 2.5l-199 96v208l198 95q20 10 31.5 2.5t11.5 -28.5v-347zM922 210zM176 524q0 -12 8.5 -20.5t20 -8.5t20 8.5t8.5 20t-8.5 20t-20 8.5
t-20 -8.5t-8.5 -19.5zM176 524z" />
    <glyph glyph-name="uniE630" unicode="&#xe630;" 
d="M512 85q-24 0 -41.5 17.5t-17.5 41.5t17.5 41.5t41.5 17.5t41.5 -17.5t17.5 -41.5t-17.5 -41.5t-41.5 -17.5zM512 174q-12 0 -21 -9t-9 -21t9 -21t21 -9t21 9t9 21t-9 21t-21 9zM644 0q-4 0 -8 2q-32 19 -85 19h-223q-32 0 -55 23t-23 55v591q0 32 23 55t55 23h368
q32 0 55 -23t23 -55v-591q0 -32 -23 -55t-55 -23q-6 0 -10 4.5t-4 10.5t4 10t10 4q20 0 34.5 14.5t14.5 34.5v591q0 20 -14.5 34.5t-34.5 14.5h-368q-20 0 -34.5 -14.5t-14.5 -34.5v-591q0 -20 14.5 -34.5t34.5 -14.5h223q61 0 100 -23q12 -7 5 -20q-4 -7 -12 -7zM608 683
h-192q-6 0 -10 4.5t-4 10.5t4 10t10 4h192q6 0 10 -4t4 -10t-4 -10.5t-10 -4.5zM663 620q6 0 10 -4t4 -10v-318q0 -6 -4 -10t-10 -4h-302q-6 0 -10 4t-4 10v318q0 6 4 10t10 4h302zM663 649h-302q-18 0 -30.5 -12.5t-12.5 -30.5v-318q0 -18 12.5 -30.5t30.5 -12.5h302
q18 0 30.5 12.5t12.5 30.5v318q0 18 -12.5 30.5t-30.5 12.5v0zM663 649z" />
    <glyph glyph-name="uniE631" unicode="&#xe631;" 
d="M826.5 704q-86.5 86 -201.5 116.5t-230.5 0t-201.5 -116.5t-116.5 -201.5t0 -230.5t116.5 -201t201.5 -117t231 0t201.5 117t116.5 201t0 230.5t-117 201.5zM766 220l-89 -89l-165 164l-164 -164l-89 89l164 165l-164 164l89 89l164 -164l165 164l89 -89l-164 -164z" />
    <glyph glyph-name="uniE632" unicode="&#xe632;" 
d="M889 188h-99v99q0 17 -11.5 28.5t-28 11.5t-28 -11.5t-11.5 -28.5v-99h-100q-16 0 -27.5 -11.5t-11.5 -28t11.5 -28t27.5 -11.5h100v-99q0 -17 11.5 -28.5t28 -11.5t28 11.5t11.5 28.5v99h99q16 0 28 11.5t12 28t-12 28t-28 11.5zM507 86h-292q-16 0 -28 11.5t-12 28.5
v555q0 16 12 28t28 12h555q17 0 28.5 -12t11.5 -28v-282v-1q0 -16 11.5 -27.5t28 -11.5t28 11.5t11.5 27.5v1v322q0 32 -23 55.5t-56 23.5h-635q-32 0 -55.5 -23.5t-23.5 -55.5v-635q0 -33 23.5 -56t55.5 -23h332q17 0 28.5 11.5t11.5 28t-11.5 28t-28.5 11.5zM507 203
q14 25 38.5 40t54.5 15h42v42q0 32 17.5 58t45.5 39v2l-54 163l-188 -243l-50 85l-200 -201h294zM413 542q0 25 -17 42.5t-42 17.5t-42.5 -17.5t-17.5 -42.5t17.5 -42t42.5 -17t42 17t17 42z" />
    <glyph glyph-name="uniE633" unicode="&#xe633;" 
d="M767 707q-2 -1 -6.5 -1.5t-6.5 -0.5q-10 -1 -13 3.5t-2 15.5q2 29 -4.5 36t-36.5 7h-187q-166 1 -190 0q-48 0 -37 -40q4 -16 -2 -21t-20 -2q-27 6 -50 0q-49 -12 -70 -57t-4 -101q36 -119 147 -155q40 -13 58 -46q32 -61 95 -84q42 -15 48.5 -24.5t6.5 -52.5
q0 -34 -7 -41.5t-42 -8.5q-85 -4 -111 -75q-11 -30 -1.5 -44t40.5 -14q68 -1 254 0q26 0 43 2q37 5 27 43q-9 34 -35.5 57.5t-61.5 28.5q-20 3 -28 4t-17.5 6t-11.5 6.5t-5.5 13t-3.5 18.5t-2 29q-1 21 7 31.5t27 14.5q72 15 107 80q12 23 30 36t45 23q120 43 144 177
q11 63 -24.5 101.5t-99.5 34.5zM283 433q-49 19 -79.5 63t-31.5 97q0 32 18.5 54.5t45.5 23.5t47.5 -19.5t22.5 -51.5q11 -114 12 -143q1 -23 -6 -28t-29 4zM584 94q31 -1 52 -21q14 -13 11 -22q-3 -11 -22 -11h-114h-110q-19 0 -23 11q-3 9 11 22q21 20 48 20q98 1 147 1z
M690 682q-24 -132 -23 -235q0 -64 -40.5 -110t-98.5 -50q-69 -4 -117.5 34.5t-53.5 106.5q-2 23 -5 66.5t-5 71t-6.5 65t-10.5 69.5q-3 16 5.5 22t25.5 6h150h143q27 -1 34 -9.5t2 -36.5zM852 583q-11 -95 -100 -145q-26 -15 -35.5 -9.5t-9.5 35.5v30h-1q9 102 10 109
q4 32 27 51.5t51 14.5q30 -5 46 -29t12 -57zM852 583z" />
    <glyph glyph-name="uniE634" unicode="&#xe634;" 
d="M599 235q-6 -6 -6 -14.5t6 -14.5t14.5 -6t14.5 6l162 163q6 6 6 14.5t-6 14.5l-162 162q-6 6 -14.5 6t-14.5 -6t-6 -14.5t6 -14.5l128 -127h-642q-9 0 -14.5 -6t-5.5 -14.5t5.5 -14.5t14.5 -6h642zM939 830h-732q-9 0 -15 -6t-6 -14v-305q0 -8 6 -14t14.5 -6t14.5 6t6 14
v285h691v-813h-691v284q0 9 -6 15t-14.5 6t-14.5 -6t-6 -15v-305q0 -8 6 -14t15 -6h732q8 0 14 6t6 14v854q0 8 -6 14t-14 6z" />
    <glyph glyph-name="uniE635" unicode="&#xe635;" 
d="M179 768l666 -384l-666 -384v768z" />
    <glyph glyph-name="uniE636" unicode="&#xe636;" 
d="M867 -63q-15 0 -24 12q-64 84 -86 102q-13 -3 -48 -47q-18 -21 -28 -31.5t-25.5 -20.5t-30.5 -10h-3q-14 1 -28 12t-22 21.5t-22 32.5q-30 47 -38 47q-10 0 -43 -48q-16 -23 -24.5 -34t-23.5 -22t-30 -11q-15 1 -29.5 12t-22.5 22.5t-22 33.5q-26 42 -36 46
q-26 -14 -112 -108l-6 -7l-12 -1q-10 0 -17 7t-7 17v817q0 22 15 37t37 15h666q22 0 37 -15t15 -37v-812q0 -12 -9 -21t-21 -9zM280 97q15 0 29.5 -11.5t22.5 -22.5t21 -33q30 -47 38 -47q10 0 43 48q15 22 24 33.5t24 22t30 10.5t29.5 -11t22.5 -22t22 -33q30 -46 39 -47
q12 0 51 48q18 21 27.5 31.5t25.5 20.5t30 10h4q7 0 13 -3.5t26 -24.5t52 -62v775q0 9 -9 9h-666q-9 0 -9 -9v-770q84 88 110 88zM512 163q-9 0 -15 6t-6 15v155l-131 183q-5 7 -3.5 15.5t8.5 14t16 4t14 -9.5l138 -193v-169q0 -9 -6 -15t-15 -6zM512 324q-7 0 -12 4
q-8 6 -9 14.5t4 15.5l134 188q5 8 14 9.5t16 -4t8.5 -14t-3.5 -15.5l-135 -189q-6 -9 -17 -9zM633 298h-242q-9 0 -15 6t-6 15t6 15t15 6h242q9 0 15 -6t6 -15t-6 -15t-15 -6zM633 365h-94q-9 0 -15 6t-6 15t6 15t15 6h94q9 0 15 -6t6 -15t-6 -15t-15 -6zM485 365h-94
q-9 0 -15 6t-6 15t6 15t15 6h94q9 0 15 -6t6 -15t-6 -15t-15 -6z" />
    <glyph glyph-name="uniE637" unicode="&#xe637;" 
d="M657 567q0 -9 -1 -17v-5v1q-1 -4 -2 -9q-3 -17 -9 -33l-2 -4v1l1 2q0 -2 -1 -2q-1 -3 -3 -8q-4 -7 -9 -15q-3 -6 -9 -13l1 1q-1 -2 -3 -4q-2 -3 -6 -7l-11 -11q-3 -2 -6 -5q-1 -1 -4 -3q-12 -10 -28 -18q-3 -2 -7 -4q-1 0 -4 -1h1q-8 -3 -17 -6q-7 -2 -16 -4q-3 0 -8 -1
q-1 0 -3 -1q1 1 4 1q-2 0 -6 -1q-17 -1 -36 0l-4 1l1 -1q-3 1 -8 2q-8 1 -18 4q-7 2 -15 5q-1 1 -4 2l1 -1q-4 2 -9 4q-14 7 -28 18l1 -1q-2 1 -4 3t-6 5l-12 12q-5 6 -10 13v-1l-2 3q-3 3 -5 8q-4 6 -9 14q-1 3 -3 7q-1 1 -2 4q-6 16 -10 33q0 4 -1 8q0 1 -1 4q1 -2 1 -5
q0 2 -1 5q-1 8 -1 18q0 8 1 17q0 4 1 9v-1q0 2 1 5q3 17 9 33l2 4l-1 -1q2 3 4 8q3 7 8 15q4 6 9 13l2 2v1q0 -1 -2 -3q0 1 2 3q3 3 6 7q11 12 25 23l-1 -1l3 2q3 2 7 5q7 4 15 9q3 1 7 3q1 1 4 2h-1q8 3 17 6q7 2 16 4q3 0 8 1q1 0 4 1h1q17 2 35 0q4 0 9 -1q-6 1 -1 0h4
q8 -2 17 -4q8 -2 16 -5q1 -1 4 -2l-1 1q4 -2 9 -4q14 -8 28 -18q1 0 2 -1l1 -1q-1 1 -3 2v1l3 -3q2 -2 6 -5q6 -5 12 -12q5 -5 11 -12h-1l3 -3q2 -3 5 -8q4 -6 8 -14q2 -3 4 -7q0 -1 1 -3l1 -1q6 -16 10 -34q1 -3 1 -8q1 -1 1 -3q0 1 -1 4q1 -2 1 -6q1 -8 1 -18t7 -17.5
t17 -7.5t17.5 7.5t7.5 17.5q0 78 -52 140q-48 57 -123 71q-80 15 -149 -25q-66 -38 -94 -113q-27 -73 0 -147q27 -73 94 -112q67 -40 149 -26q74 13 123 72q52 61 52 140q0 10 -7.5 17t-17.5 7t-17 -7t-7 -17zM170 31q0 11 1 23q0 4 1 11q0 2 1 5v4v-1q3 23 10 46q2 10 7 22
q1 4 4 10q0 2 2 6v-1q0 2 1 3q8 19 20 39q5 8 12 17q2 4 6 9q1 1 3 4q1 2 2 2q13 17 29 32q7 7 16 14q3 3 8 7l2 2l-2 -1q2 1 6 4q17 12 37 23q7 5 17 9q3 2 8 4q2 1 5 2l1 1q18 7 39 13q19 5 40 8h-1q2 1 6 1q5 1 11 1q11 1 23 1q20 1 42 -2q6 0 7 -1q0 1 -2 1q5 -1 11 -2
q11 -2 23 -5q20 -4 40 -12q4 -1 9 -4h1q2 -1 5 -2q10 -5 21 -11q9 -4 18.5 -2t14.5 11t2.5 19t-10.5 15q-92 49 -194 44q-99 -5 -182 -58q-76 -49 -122 -129q-48 -83 -48 -182q0 -10 7.5 -17.5t17.5 -7.5t17 7.5t7 17.5zM558 242h125h177h18q10 0 17.5 7t7.5 17t-7.5 17.5
t-17.5 7.5h-125h-176h-19q-10 0 -17 -7.5t-7 -17.5t7 -17t17 -7zM558 114h125h177h18q10 0 17.5 7t7.5 17.5t-7.5 17.5t-17.5 7h-125h-176h-19q-10 0 -17 -7t-7 -17.5t7 -17.5t17 -7zM558 -14h125h177h18q10 0 17.5 7.5t7.5 17.5t-7.5 17t-17.5 7h-125h-176h-19
q-10 0 -17 -7t-7 -17t7 -17.5t17 -7.5z" />
    <glyph glyph-name="uniE638" unicode="&#xe638;" 
d="M787 -128h-550q-43 0 -76 33t-33 76v806q0 43 33 76t76 33h550q43 0 76 -33t33 -76v-806q0 -43 -33 -76t-76 -33zM237 851q-25 0 -44.5 -18t-19.5 -46v-806q0 -25 18 -44.5t46 -19.5h550q25 0 44.5 18t19.5 46v806q0 25 -18 44.5t-46 19.5h-550zM512 19q-43 0 -76 33
t-33 76t33 76t76 33t76 -33t33 -76t-33 -76t-76 -33zM512 192q-25 0 -44.5 -18t-19.5 -46q0 -29 17.5 -46.5t46.5 -17.5q25 0 44.5 18t19.5 46t-19.5 46t-44.5 18zM384 704h256v-45h-256v45z" />
    <glyph glyph-name="uniE639" unicode="&#xe639;" 
d="M739 389l-174 101v44l193 -112q23 -13 23 -37.5t-22 -38.5l-194 -112v44l174 101q9 5 0 10zM565 -124q134 5 256 35q62 15 105.5 58t58.5 105q36 147 36 310t-36 310q-15 62 -58.5 105t-105.5 58q-122 30 -256 35v-38q130 -5 248 -34q51 -12 86.5 -47t47.5 -86
q36 -143 36 -303t-36 -303q-12 -51 -47.5 -86t-86.5 -47q-118 -29 -248 -34v-38zM565 490l-172 98q-3 2 -5 0.5t-2 -4.5v-400q0 -4 2.5 -5t5.5 0l171 99v-44l-152 -87q-21 -13 -43 -1.5t-22 37.5v401q0 26 21.5 38t43.5 -1l152 -87v-44zM565 892q-190 7 -362 -35
q-62 -15 -105.5 -58t-58.5 -105q-36 -147 -36 -310t36 -310q15 -62 58.5 -105t105.5 -58q172 -42 362 -35v38q-185 -7 -354 34q-51 12 -86.5 47t-47.5 86q-36 143 -36 303t36 303q12 51 47.5 86t86.5 47q168 41 354 34v38z" />
    <glyph glyph-name="uniE63A" unicode="&#xe63a;" 
d="M642 512l205 204l-1 -115q0 -8 5 -13t12 -5h13q17 0 17 15l1 173v9q1 8 -4 12q-5 6 -12 5h-9l-171 1q-8 0 -13 -5.5t-5 -12.5v-12q1 -9 6.5 -13.5t13.5 -4.5l113 -1l-205 -203q-7 -7 -7 -17t7 -17t17 -7t17 7zM383 319l-205 -204v116q1 7 -4.5 12.5t-12.5 4.5h-13
q-17 0 -17 -15l-1 -173v-9q-1 -8 4 -12q5 -6 12 -5h9l172 -1q7 0 12.5 5.5t5.5 12.5v12q-1 9 -7 13.5t-13 4.5l-113 1l205 203q7 7 7 17t-7 17t-17 7t-17 -7zM894 60v173q-1 15 -18 15h-12q-8 1 -13 -4.5t-5 -12.5l1 -116l-205 204q-7 7 -17 7t-17 -7t-7 -17t7 -17l204 -203
l-112 -1q-8 0 -13.5 -4.5t-6.5 -13.5v-12q0 -7 5 -12.5t12 -5.5l172 1h9q7 -1 12 5q4 4 4 12v9v0zM212 749l113 1q7 0 13 4.5t7 13.5v12q0 7 -5.5 12.5t-12.5 5.5l-172 -1h-9q-7 1 -12 -5q-5 -4 -4 -12v-9v-173q1 -15 18 -15h13q7 -1 12 4.5t5 12.5v116l205 -204q7 -7 17 -7
t17 7t7 17t-7 17zM212 749z" />
    <glyph glyph-name="uniE63B" unicode="&#xe63b;" 
d="M670 56q0 9 -5.5 16t-13.5 7h-278q-8 0 -13.5 -7t-5.5 -16v-89h-198v-67h712v67h-198v89v0zM957 868h-890q-28 0 -47.5 -20t-19.5 -47v-624q0 -27 19.5 -46.5t47.5 -19.5h890q28 0 47.5 19.5t19.5 46.5v624q0 27 -19.5 47t-47.5 20v0zM957 200q0 -9 -6.5 -15.5
t-15.5 -6.5h-846q-9 0 -15.5 6.5t-6.5 15.5v579q0 9 6.5 15.5t15.5 6.5h846q9 0 15.5 -6.5t6.5 -15.5v-579v0zM729 242h121v351h-121v-351v0zM536 242h121v459h-121v-459v0zM175 242h121v135h-121v-135v0zM344 242h120v243h-120v-243v0z" />
    <glyph glyph-name="uniE63C" unicode="&#xe63c;" 
d="M134 640q10 0 17 6t7 15t-7 15.5t-17 6.5h-97q-11 0 -18 -6.5t-7 -15.5t7 -15t18 -6h97zM134 363q10 0 17 6t7 15t-7 15t-17 6h-97q-11 0 -18 -6t-7 -15t7 -15t18 -6h97zM134 85q10 0 17 6.5t7 15.5t-7 15t-17 6h-97q-11 0 -18 -6t-7 -15t7 -15.5t18 -6.5h97zM987 640
q11 0 18 6t7 15t-7 15.5t-18 6.5h-707q-10 0 -17 -6.5t-7 -15.5t7 -15t17 -6h707zM994 363q10 0 17 6t7 15t-7 15t-17 6h-708q-10 0 -17 -6t-7 -15t7 -15t17 -6h708zM997 85q10 0 17 6.5t7 15.5t-7 15t-17 6h-707q-11 0 -18 -6t-7 -15t7 -15.5t18 -6.5h707z" />
    <glyph glyph-name="uniE63D" unicode="&#xe63d;" 
d="M853 363q9 0 15.5 6t6.5 15t-6.5 15t-15.5 6h-682q-9 0 -15.5 -6t-6.5 -15t6.5 -15t15.5 -6h682z" />
    <glyph glyph-name="uniE63E" unicode="&#xe63e;" 
d="M516 219q127 0 216.5 89.5t89.5 216.5q0 75 -34 141l31 121q5 17 -8 30t-31 8l-118 -30q-68 37 -146 37q-127 0 -217 -90t-90 -217t90 -216.5t217 -89.5zM649 616q13 0 22 -9.5t9 -22.5t-9 -22t-22 -9t-22.5 9t-9.5 22t9.5 22.5t22.5 9.5zM652 457q12 -8 4 -20
q-23 -35 -60.5 -55t-80 -20t-79.5 20t-61 55q-8 12 4 20q5 3 136.5 3t136.5 -3zM383 616q13 0 22 -9.5t9 -22.5t-9 -22t-22 -9t-22.5 9t-9.5 22t9.5 22.5t22.5 9.5zM865 34q-20 74 -85 114l-58 36q-40 25 -86 40q-18 -7 -38 -12q-7 -30 -31.5 -49t-55.5 -19q-32 0 -56.5 20
t-31.5 50q-15 5 -30 11q-42 -14 -81 -37l-67 -40q-68 -40 -89 -116l-21 -79h752zM448 208q8 -19 25 -30.5t38 -11.5q20 0 37 11t25 29q-30 -5 -57 -5q-34 0 -68 7z" />
    <glyph glyph-name="uniE63F" unicode="&#xe63f;" 
d="M896 734l-384 -666l-384 666h768z" />
    <glyph glyph-name="uniE640" unicode="&#xe640;" 
d="M995 503q-13 14 -28 16q-13 3 -24 3h-277q-5 0 -13 5q-2 1 -4.5 3.5t-4 4.5t-1.5 3l-80 290q-3 16 -11 27q-10 20 -39 23q-25 0 -39 -23q-10 -18 -11 -26l-80 -289q-2 -9 -9 -11q-9 -7 -14 -4h-275q-18 0 -33 -6q-15 -9 -19 -14q-13 -12 -13 -31t13 -32q8 -9 19 -17
l223 -146q4 -2 7.5 -9.5t2.5 -13.5q0 -3 -1 -4l-86 -286q-3 -13 -3 -26q0 -17 10 -30q6 -9 16.5 -14.5t20.5 -4.5q7 1 12 1.5t10 3.5t7 4t8 5t6 5l218 185q4 3 11.5 3t10.5 -3l230 -186q21 -17 44 -18h2q23 0 35 18q10 13 10 30q0 9 -5 29l-98 286q0 1 -0.5 2.5t-0.5 2.5
q-1 6 2.5 12t7.5 7l222 146q11 8 19 17q13 15 13 32q0 19 -11 30z" />
    <glyph glyph-name="uniE641" unicode="&#xe641;" 
d="M512 -120q-102 0 -195.5 40t-161 107.5t-107.5 161t-40 195.5t40 195.5t107.5 161t161 107.5t195.5 40t195.5 -40t161 -107.5t107.5 -161t40 -195.5t-40 -195.5t-107.5 -161t-161 -107.5t-195.5 -40zM512 840q-124 0 -229 -61t-166 -166t-61 -229q0 -93 36 -177
t97.5 -145.5t145.5 -97.5t177 -36t177 36t145.5 97.5t97.5 145.5t36 177q0 124 -61 229t-166 166t-229 61zM476 221q-1 13 -1 20q0 40 12 69q8 21 26 43q14 17 49 48t45.5 49t10.5 40q0 39 -31 69t-75 30q-43 0 -72 -27t-38 -84l-70 8q10 77 56 117.5t123 40.5
q80 0 128 -43.5t48 -106.5q0 -36 -17 -66t-66 -74q-33 -29 -43 -43t-15 -32t-5 -58h-65zM472 85v77h76v-77h-76z" />
    <glyph glyph-name="uniE642" unicode="&#xe642;" horiz-adv-x="1500" 
d="M2 359l176 196q36 12 66 -6l325 -259q5 -3 13 -6t28.5 -2t36.5 14l610 584q1 1 4 3t11.5 6t16.5 5.5t18.5 -0.5t19.5 -9l164 -165q2 -3 4.5 -8.5t2 -19t-10.5 -24.5l-808 -778q-2 -2 -5 -4.5t-13 -7t-21 -5.5t-27.5 3.5t-33.5 16.5l-567 435q-2 2 -4 4.5t-6 11.5t0 15z
" />
    <glyph glyph-name="uniE643" unicode="&#xe643;" horiz-adv-x="1639" 
d="M844 639q49 0 92 -22t71 -60l25 -6q-29 48 -78.5 76.5t-108.5 28.5q-57 0 -105 -27l25 -7q36 17 79 17zM977 650l14 -11l4 16l16 10l-16 9l-4 17l-14 -12l-19 2l8 -16l-8 -16zM733 689l-14 10l-3 -19l-15 -11l15 -7l6 -17l13 13l18 1l-7 15l5 18zM869 713l-11 14l-9 -16
l-17 -6l13 -12v-18l16 9l18 -5l-3 17l11 14zM1064 603l-15 11l-2 -18l-15 -11l17 -8l7 -16l12 12h19l-10 16l5 16zM1261 471l-761 203q-14 4 -26.5 -3t-16.5 -21l-54 -203q-4 -14 3.5 -27t21.5 -17l761 -203q14 -4 26.5 3t16.5 21l54 203q4 15 -3 27.5t-22 16.5zM1267 424
l-50 -186q-3 -11 -12.5 -16.5t-19.5 -2.5l-745 200q-10 3 -15.5 12.5t-2.5 20.5l50 186q3 11 12.5 16t19.5 2l745 -199q10 -4 15.5 -13t2.5 -20zM844 753q109 0 193.5 -66t111.5 -168l19 -5q-26 111 -116.5 183.5t-207.5 72.5q-70 0 -132.5 -27.5t-109.5 -77.5l20 -5
q44 44 101.5 68.5t120.5 24.5v0zM925 253q-38 -17 -81 -17q-48 0 -91 22t-71 60l-26 6q30 -48 79.5 -76.5t108.5 -28.5q57 0 105 27zM737 216l-14 12l-4 -18l-16 -9l16 -9l4 -17l14 11l19 -1l-7 16l7 17zM844 162l11 -14l9 17l17 5l-13 12l1 18l-17 -9l-17 5l3 -16l-11 -15z
M844 122q-108 0 -192.5 66t-111.5 168l-19 5q26 -111 116.5 -183.5t206.5 -72.5q71 0 133.5 27.5t109.5 77.5l-20 4q-43 -43 -100.5 -67.5t-121.5 -24.5h-1zM971 186l15 -10l2 18l15 11l-15 8l-5 16l-14 -13h-17l7 -16l-6 -17zM676 435q-20 6 -15 26l16 60l14 -5l-4 -15
l68 -19l8 30l-85 24l3 14l99 -28l-15 -55l-82 23l-8 -28q-4 -13 8 -15l52 -15q13 -4 18 7l3 7q1 1 1.5 3t1 3t1.5 2q5 -3 11 -7h2q-2 -4 -4.5 -10t-3.5 -8q-8 -16 -29 -9zM775 402l-2 15q8 4 20 11l10 35l-14 4l3 14l28 -8l-14 -47q6 -18 25 -23q41 -12 64 -17q-5 -7 -8 -11
q-3 1 -25 7.5t-37 10.5q-20 5 -28 24q-16 -11 -22 -15zM817 485q-1 7 -7 25q-1 1 -1 3l12 3q6 -14 10 -29zM845 434q-3 9 -8 21q-1 2 -2.5 4.5t-1.5 3.5l11 4q4 -6 8.5 -15.5t6.5 -13.5zM834 478l3 12l47 -13l6 20l14 -4l-5 -21l18 -5l-3 -11l-19 5l-12 -44q-5 -19 -24 -14
q-6 1 -20 5q0 3 1 4v10q6 -2 17 -5q10 -3 12 7l12 41zM907 365q-6 10 -8 11q15 7 25 14l8 -10q-13 -9 -25 -15zM925 462l4 10l8 -2l3 12l13 -3l-4 -12l22 -6l3 13l13 -3l-4 -14l9 -2l-4 -11l-8 3l-15 -54l9 -3l-3 -11l-66 19l4 10l9 -2l15 54zM934 412l-3 -11l22 -6l3 12z
M940 434l-3 -12l21 -5l4 11zM949 358q0 1 -2 4.5t-4 5.5q-2 7 -5 10l11 5q7 -13 12 -20q15 12 25 49l14 50l45 -12l-28 -100q-4 -12 -16 -10q-3 0 -8 3q-1 0 -3 0.5t-3 0.5h-2v7v7q3 -2 12 -4q7 -2 8 4l6 20l-21 6q-9 -23 -27 -36q-3 6 -6 10l-2 2q1 0 1 0.5t1 0.5l1 1z
M946 456l-3 -12l21 -6l4 12zM998 407q-2 -5 -5 -11l21 -6l6 20l-20 6zM1009 447l-6 -20l20 -6l6 20z" />
    <glyph glyph-name="uniE644" unicode="&#xe644;" 
d="M175 580h674q46 0 77.5 -32t31.5 -77v-174q0 -45 -31.5 -77t-77.5 -32h-674q-45 0 -77 32t-32 77v174q0 45 32 77t77 32zM327 375q-10 6 -19 16q-7 -18 -19 -42q-13 -24 -25 -37q10 -10 23 -22q2 5 20 46q11 25 20 39zM330 438q-20 29 -37 45l-17 -12q21 -21 36 -47z
M386 335q3 1 3 3t-3 3q-11 4 -22 12q-15 -30 -49 -59q12 -5 21 -13q43 53 50 54zM374 450q-15 -33 -23 -44.5t-17 -16.5q6 -10 9 -21q15 4 64 5v-72q0 -8 -6 -10t-26 1q6 -14 8 -28q30 4 37.5 9.5t7.5 24.5v75q40 -1 54 -2v24q-18 -4 -54 -4v14q0 13 4 16q3 2 2.5 3t-3.5 1
q-14 -1 -26 2q1 -9 2 -37h-42q21 37 31 60q71 0 99 -2v23q-35 -3 -91 -3q10 18 19 22q2 1 1.5 2.5t-2.5 2.5q-16 3 -29 9q-2 -14 -11 -36q-32 1 -52 3v-22q17 1 44 1zM499 301q-21 30 -41 51l-16 -11q23 -27 36 -54zM582 405q-26 -46 -43 -51q4 -9 5 -23q13 4 29 6l47 4
q-1 10 3 20q-18 -2 -53 -5q51 78 54 79q7 3 0 5t-18 11q-5 -11 -15 -30l-31 -2q37 62 40 64q6 4 -2.5 6.5t-22.5 12.5q-21 -77 -41 -82q4 -11 5 -22q8 3 23 5zM623 315q-66 -12 -88 -11q6 -14 7 -27q16 8 80 18q-2 12 1 20zM699 411v33q40 0 61 -2v24q-19 -2 -61 -3v28
q0 4 2 5q3 2 3 4t-4 1q-11 -1 -24 2q2 -14 2 -40q-35 1 -54 3v-24q20 2 54 2v-33q-28 0 -45 2v-23q20 2 55 2q38 0 58 -2v23q-16 -2 -47 -2zM723 288v-18h23q-2 21 -2 42v27q0 18 1 29q-17 -1 -54 -1q-40 0 -57 1q1 -12 1 -29v-33q0 -19 -2 -40h23v22h67zM656 306v42h67v-42
h-67z" />
    <glyph glyph-name="uniE645" unicode="&#xe645;" 
d="M704 448q0 62 -35.5 111.5t-92.5 69.5v11q0 27 -18.5 45.5t-45.5 18.5t-45.5 -18.5t-18.5 -45.5v-11q-57 -20 -92.5 -69.5t-35.5 -111.5v-128h384v128zM762 178l-58 78h-384l-58 -78q-6 -8 -6 -18q0 -13 9.5 -22.5t22.5 -9.5h160q0 -27 18.5 -45.5t45.5 -18.5t45.5 18.5
t18.5 45.5h160q13 0 22.5 9.5t9.5 22.5q0 10 -6 18z" />
    <glyph glyph-name="uniE646" unicode="&#xe646;" horiz-adv-x="1025" 
d="M759 393q-18 4 -23 11t-1 13l4 5q1 3 3.5 7.5t6.5 18t5 26.5t-4.5 29.5t-18.5 29.5q-16 16 -42.5 21.5t-52.5 1t-50 -11t-38 -12.5l-15 -6q-12 -4 -19.5 -5.5t-12 0.5t-6.5 4t-1.5 8t1 10.5t3 14.5t3.5 16q0 18 -2.5 32.5t-12.5 31.5t-26.5 25.5t-47 8t-70.5 -14.5
t-82 -41.5t-74 -57.5t-57 -57.5t-39 -45.5l-14 -18q-74 -99 -74 -202q7 -56 34 -100t65 -71.5t90 -47t99 -28t100 -13.5q87 -6 179.5 14.5t172.5 70.5t113 120q20 42 20.5 78t-12.5 58.5t-33.5 40t-38 25.5t-32.5 11zM403 30q-126 -6 -214.5 49t-88.5 139q0 83 88 143
t215 66q128 6 215.5 -42t87.5 -131q0 -84 -89.5 -151t-213.5 -73zM369 354q-149 -18 -149 -178q0 -2 0.5 -5.5t2.5 -13.5t6 -19t13.5 -19.5t22.5 -17.5q48 -26 97.5 -27t88.5 18.5t66 53.5q15 20 20.5 49t-2.5 58.5t-26 54.5t-55 38t-85 8zM326.5 132q-23.5 -3 -40 9
t-16.5 32t15.5 37t38.5 20q26 2 42.5 -10.5t16.5 -33.5q0 -19 -16.5 -35t-40 -19zM426 217q-8 -6 -16.5 -5.5t-12.5 7.5q-5 7 -3 17t10 15q9 7 17.5 6t13 -8t2 -16.5t-10.5 -15.5zM841 461q10 0 18 7t9 16v3q15 131 -88 152q-33 7 -63 2q-12 0 -20 -8.5t-8 -20t8 -19.5
t20 -8q36 7 57.5 0.5t30 -22.5t10.5 -32.5t0 -28.5l-2 -13q0 -12 8.5 -20t19.5 -8zM821 784q-59 14 -138 -1q-1 0 -2 -1t-2 -1l-1 -1q-12 -3 -20.5 -14t-8.5 -25q0 -16 12 -28t28 -12q22 3 37 9q6 0 20 2t38 -4.5t48 -15.5t49.5 -30t43.5 -50q31 -70 12 -134q-8 -19 -8 -38
q0 -17 11.5 -26.5t28.5 -9.5t26 6t13 27q21 65 16 118t-23 92t-49.5 67.5t-64 45t-66.5 24.5z" />
    <glyph glyph-name="uniE647" unicode="&#xe647;" 
d="M1013 563q-18 25 -188 266q-9 15 -26 15h-303h-19h-276q-13 0 -21 -9l-1 -1q-2 -2 -4 -5q-26 -42 -80.5 -131t-83.5 -135q-11 -18 3 -35l2 -2q78 -99 233 -297t231 -296q10 -13 23 -11q11 0 20 11q58 72 153 188t178.5 217t153.5 188l2 4q14 17 3 33zM929 578h-184
q8 23 29.5 81.5t33.5 90.5q47 -64 121 -172zM501 770q15 -22 132 -192h-267q107 151 135 192zM659 518q-107 -291 -157 -428q-95 267 -155 428h312zM690 601q-26 38 -126 183h193q-13 -35 -37.5 -102.5t-29.5 -80.5zM314 607q-35 92 -69 177h193q-68 -97 -124 -177zM195 748
q32 -81 66 -170h-170zM284 518q62 -166 159 -442q-193 248 -345 442h186zM723 518h201q-87 -107 -365 -446q44 119 164 446z" />
    <glyph glyph-name="uniE648" unicode="&#xe648;" 
d="M957 484q-3 10 -82 21.5t-149.5 17.5t-77.5 6q-111 279 -138 279q-25 0 -135 -272l-3 -7q-300 -22 -309 -45q-5 -11 51.5 -65.5t113.5 -103.5t58 -49l-41 -193q-20 -107 -11 -114q7 -6 77 31t132.5 74t66.5 40l143 -86q123 -70 134 -59q15 16 -42 263q0 1 -28.5 -2
t-82 -6.5t-102.5 -3.5q-44 -1 -96 0.5t-82 3.5l-31 2l258 191q-80 14 -141 20q-48 4 -121 7l-33 3q16 4 86 8t138 2q42 -1 89 -6t72 -10l26 -4l-257 -183q56 -9 103 -11q40 -1 89 -1h78l30 1l-6 33l122 107q106 96 101 111zM957 484z" />
    <glyph glyph-name="uniE649" unicode="&#xe649;" 
d="M348 683h296q28 0 47.5 -19.5t19.5 -47.5v-141l-28 -28v169q0 16 -11.5 27.5t-27.5 11.5h-258l41 -35q11 -9 1 -20l-142 -171v-261q0 -16 11.5 -27t27.5 -11h84l-10 -28h-74q-28 0 -47.5 19.5t-19.5 46.5v266q0 3 1 6l76 233q0 1 1 3v0v0q1 2 3 3v1v0v0h1q1 1 4 2v0v0
l1 1v0v0h1h2v0zM342 299v-22h146v22h-146v0zM342 361v-23h146v23h-146v0zM342 418v-22h292v22h-292v0zM493 488v-23h141v23h-141v0zM493 550v-23h141v23h-141v0zM493 607v-23h141v23h-141v0zM698 419l-228 -228l69 -68l227 228l-68 68v0zM462 181l-26 -74l22 -22l71 28
l-67 68v0zM711 248l-28 -27v-53q0 -16 -11.5 -27t-27.5 -11h-53l-16 -16l11 -12h58q28 0 47.5 19.5t19.5 46.5v80v0zM308 499l90 108l-43 38zM308 499z" />
    <glyph glyph-name="uniE64A" unicode="&#xe64a;" 
d="M931 668l-157 -27l-48 -41l-259 -119q-5 1 -10 3l5 5q14 16 16 28q9 39 -31 58q-35 17 -64 -9q-5 -5 -16 -20q-29 -36 -45 -43h-1q-6 0 -29 8q-47 17 -78 17q-33 0 -64 -15q-32 -15 -55 -36t-40 -53t-13 -80t31 -106q64 -138 165 -138q39 0 85 21q20 10 36.5 24
t28.5 32.5t18 30t15 30.5q10 25 12 27q15 7 74 9q10 0 12 1q16 1 31 14.5t17 36.5q4 36 -33 51l-2 1q-6 2 -19 6q-16 5 -18 8q2 4 6 7l266 136l45 -7l104 48l39 -7l27 70zM417 300q-10 -5 -16.5 -15t-15.5 -31q-10 -23 -17 -36.5t-24 -32.5t-37 -29q-39 -18 -69 -18
q-76 0 -130 116q-75 162 59 224q23 11 47.5 11t65.5 -14q40 -15 58 -7q24 10 59 55q10 12 13 15q6 5 11 5q4 0 9 -3q13 -6 11 -15q-1 -2 -9 -11q-19 -22 -16 -39q5 -28 52 -33h5l271 125l46 37l133 25l10 -6l-2 -11l-20 4l-104 -48l-46 7l-278 -142l-2 -1q-13 -9 -21 -24.5
t-1 -31.5q9 -19 43 -29q11 -3 16 -5l1 -1q7 -3 8.5 -4.5t1.5 -7.5q-1 -6 -4.5 -10t-6.5 -5l-2 -1q-2 0 -9 -1h-1q-67 -2 -89 -12zM506 306z" />
    <glyph glyph-name="uniE64B" unicode="&#xe64b;" 
d="M856 268q-6 81 -83 167q3 7 4.5 21.5t-5 37.5t-22.5 40v2q0 107 -67 177t-164 71q-97 -1 -163.5 -71t-66.5 -177v-2q-17 -17 -23 -40t-5 -37.5t4 -21.5q-77 -86 -83 -167q-2 -41 12 -59q7 -7 17 -4.5t23.5 17.5t24.5 38q13 -46 54 -100q-26 -6 -42 -24t-17 -36.5t7 -35.5
q23 -38 93 -38q106 0 150 42q5 5 15 5t16 -5q43 -42 149 -42q70 0 94 38q7 17 6.5 35.5t-16.5 36.5t-42 24q40 54 53 100q11 -23 24.5 -38t24 -17.5t16.5 4.5q14 18 12 59z" />
    <glyph glyph-name="uniE64C" unicode="&#xe64c;" 
d="M555 173q-1 -1 -4 -1q-2 -1 -5 -2q-9 -2 -13.5 -10.5t-2.5 -17.5t10.5 -14t17.5 -2q3 1 5 1q4 1 6 2q9 3 13.5 11t1.5 17.5t-11 14t-18 1.5zM555 173zM355 295l20 -26q7 8 17 16q10 10 31 24l12 8q-5 18 -7 35l-30 -22v126h-61v-31h29v-104q1 -18 -11 -26zM355 295z
M428 482h145v-28h-145v28zM428 482zM417 503q-8 9 -21 26q-14 17 -23 26l-27 -16q8 -8 20 -26q15 -18 22 -28zM417 503zM582 265q43 0 40 40v239h-187v-29h154v-199q1 -10 -4.5 -15t-17.5 -3h-41q5 -20 6 -33h50zM582 265zM750 179l-18 17l-13 14l-10 10q47 55 63 125
q21 91 -14.5 178.5t-113.5 138.5q-78 49 -171.5 45.5t-166.5 -58.5q-75 -56 -104 -146t-1 -178q27 -90 103 -147.5t169 -61.5q10 0 17 6.5t7 16t-6.5 16.5t-15.5 7q-79 3 -143 52t-87 124q-24 75 1 151t87 123t141.5 50t144.5 -39q66 -42 96 -116.5t13 -150.5
q-11 -48 -39.5 -88t-69.5 -66q-8 -6 -10 -15t3 -17t14.5 -10t17.5 3q15 10 32 25q24 -24 41 -42q71 -71 80 -79q7 -7 16.5 -7t16 6.5t6.5 16t-6 16.5q-3 3 -12 12.5t-30 29t-38 38.5zM750 179zM556 422h-114v-106h114v106zM526 343h-55v51h55v-51zM526 343z" />
    <glyph glyph-name="uniE64D" unicode="&#xe64d;" 
d="M515 849q-91 0 -173.5 -35t-142.5 -95t-95 -142.5t-35 -173.5t35 -174t95 -142.5t142.5 -95t173.5 -35.5t174 35.5t142.5 95t95 142.5t35.5 174t-35.5 173.5t-95 142.5t-142.5 95t-174 35zM543 574q33 57 73 120q11 18 31 4q4 -2 32 -23q-11 -18 -89 -148
q-9 5 -23.5 13.5t-15.5 9.5q-8 5 -9.5 13t1.5 11zM318 160q-22 12 -8 33q9 15 25.5 43t20.5 35q4 6 10.5 17.5t8 14t7 7t8 3.5t10.5 -3.5t16 -7.5t22 -15l3 -4q-1 -2 -87 -145q-34 21 -36 22zM722 524q-34 -176 -175 -323q-56 -58 -122 -70q-7 -1 -15.5 -1t-21 0.5
t-19.5 0.5q67 112 85 142q1 2 3 3t5 2t4 2q4 2 12 5t13.5 6t8.5 7q48 73 101 163q5 8 7 18.5t-1 17.5q-4 7 -5 12.5t1 12t3.5 9.5t6.5 11q2 2 26 42q2 5 48 82q13 -17 17 -24q20 -30 22 -58q2 -25 -4 -60z" />
    <glyph glyph-name="uniE64E" unicode="&#xe64e;" 
d="M787 581q-48 55 -117 55h-1q-33 0 -63.5 -13.5t-52.5 -38.5q-14 33 -35 57q-27 32 -61 49q-76 39 -152 1q-34 -18 -61 -49q-55 -66 -55 -158t55 -158q27 -31 61 -49q26 -13 54 -16l-5 -6q-5 -7 -1 -15q4 -10 10 -11v-1v-1h1v0l9 3q-3 -17 4 -49v-1q6 -17 5.5 -44.5
t-15.5 -58.5q-5 -11 6 -16q2 -1 5 -1q7 0 10 7q12 25 16 49.5t2.5 37t-6.5 33.5q-7 32 -2 48l15 1q8 0 11 7t-2 13l-6 7q21 4 41 14q35 18 61 49q7 8 13 17q17 -33 45 -55q34 -27 76 -32l-7 -8q-5 -5 -2 -11t10 -6h4q-4 -20 1 -50q7 -36 -3 -65q-1 -5 1 -8.5t6 -5.5
q10 -3 13 7q11 34 4 76q-5 28 -1 46h6q7 0 10 6q2 6 -2 11l-7 7q61 7 104 58q47 56 46.5 134.5t-48.5 133.5zM540 484q0 -79 -46.5 -135t-112 -56t-112 56t-46.5 135t46.5 135t112 56t112 -56t46.5 -135zM551 378q23 49 23 105q0 32 -8 63q16 26 44.5 42.5t58.5 16.5l1 7h-1
h-4v-8q21 0 48.5 -12t44.5 -32q41 -48 42 -114q1 -76 -47 -124q-36 -37 -83 -37q-38 0 -70.5 25.5t-48.5 67.5zM671 274h-1q-6 0 -14 1q9 -1 15 -1zM686 276l-1 -1zM335 639q-37 -9 -62 -45q-23 -32 -24 -66q0 -1 5 -5q1 -1 3.5 0.5t3.5 1.5h-5v-10q14 8 14 13
q0 24 20.5 52.5t49.5 36.5q5 1 7 5q3 5 2 9q-3 11 -14 8zM766 360l8 21l-92 -82l23 6q45 13 61 55z" />
    <glyph glyph-name="uniE64F" unicode="&#xe64f;" horiz-adv-x="1025" 
d="M320 588q-15 0 -27 -9.5t-12 -23.5t12 -23.5t27 -9.5t24 9t9 24t-9 24t-24 9zM502 522q15 0 24 9t9 24t-9 24t-24 9t-27 -9.5t-12 -23.5t12 -23.5t27 -9.5zM512 896q-139 0 -257 -68.5t-186.5 -186.5t-68.5 -257t68.5 -257t186.5 -186.5t257 -68.5q104 0 199 40.5
t163.5 109t109 163.5t40.5 199t-40.5 199t-109 163.5t-163.5 109t-199 40.5zM405 252q-26 0 -91 13l-91 -46l26 79q-104 74 -104 178q0 93 76 158.5t184 65.5q96 0 170.5 -53t91.5 -132q-14 1 -25 1q-92 0 -156.5 -60.5t-64.5 -147.5q0 -27 8 -55q-12 -1 -24 -1zM788 160
l20 -66l-72 39q-52 -13 -78 -13q-92 0 -156.5 56t-64.5 135t64.5 135t156.5 56q89 0 155 -56.5t66 -134.5q0 -82 -91 -151zM730 397q-10 0 -18 -8.5t-8 -18t8 -18t18 -8.5q14 0 23 8t9 18.5t-9 18.5t-23 8zM587 397q-10 0 -18 -8.5t-8 -18t8 -18t18 -8.5q14 0 23 8t9 18.5
t-9 18.5t-23 8z" />
    <glyph glyph-name="uniE650" unicode="&#xe650;" 
d="M512 896q-104 0 -199 -40.5t-163.5 -109t-109 -163.5t-40.5 -199t40.5 -199t109 -163.5t163.5 -109t199 -40.5t199 40.5t163.5 109t109 163.5t40.5 199t-40.5 199t-109 163.5t-163.5 109t-199 40.5zM794 224q-10 -8 -25.5 0.5t-32.5 31.5q-14 -38 -36 -71q51 -18 51 -47
q0 -25 -39 -43t-94 -18q-66 0 -106 24q-39 -24 -106 -24q-55 0 -93.5 18t-38.5 43q0 29 50 47q-21 32 -36 71q-16 -23 -31.5 -31.5t-25.5 -0.5q-14 13 -9.5 52.5t24.5 81.5q9 20 20 35q3 124 74.5 211t171.5 87q101 0 172.5 -87t74.5 -211q10 -15 19 -35q20 -42 24.5 -81.5
t-8.5 -52.5z" />
    <glyph glyph-name="uniE651" unicode="&#xe651;" 
d="M512 -63q-91 0 -174 35.5t-142.5 95t-95 142.5t-35.5 173.5t35.5 173.5t95 143t142.5 95t174 35t173.5 -35t142.5 -95t95 -143t35 -173.5t-35 -173.5t-95 -142.5t-142.5 -95t-173.5 -35.5zM780 205l-168 146l-100 -81l-101 81l-167 -146h536zM244 237l150 130l-150 114
v-244zM780 562h-536v-48l268 -212l268 212v48zM780 481l-151 -114l151 -130v244z" />
    <glyph glyph-name="uniE652" unicode="&#xe652;" 
d="M541 -36q0 -11 -8 -19.5t-19.5 -8.5t-19.5 8t-8 20v840q0 11 8 19.5t19.5 8.5t19.5 -8t8 -20v-840zM951 660l-158 161q-8 10 -21 11v0q-12 0 -20 -8.5t-8 -19.5v-840q0 -12 8 -20t19.5 -8t19.5 8.5t8 19.5v772l114 -116q8 -8 19 -8t19.5 8t8.5 19.5t-9 20.5zM256.5 832
q-11.5 0 -19.5 -8.5t-8 -19.5v-776l-117 120q-8 8 -19.5 8t-19.5 -8t-8 -19.5t8 -20.5l160 -163q9 -9 21 -8q1 -1 3 -1q11 0 19 8.5t8 19.5v840q0 12 -8 20t-19.5 8z" />
    <glyph glyph-name="uniE653" unicode="&#xe653;" 
d="M0 384q0 -139 68.5 -257t186.5 -186.5t257 -68.5t257 68.5t186.5 186.5t68.5 257t-68.5 257t-186.5 186.5t-257 68.5t-257 -68.5t-186.5 -186.5t-68.5 -257zM960 384q0 -91 -35.5 -174t-95.5 -143t-143 -95.5t-174 -35.5t-174 35.5t-143 95.5t-95.5 143t-35.5 174
t35.5 174t95.5 143t143 95.5t174 35.5t174 -35.5t143 -95.5t95.5 -143t35.5 -174zM318 384l226 -226l45 45l-181 181l181 181l-45 45z" />
    <glyph glyph-name="uniE654" unicode="&#xe654;" 
d="M1024 384q0 -139 -68.5 -257t-186.5 -186.5t-257 -68.5t-257 68.5t-186.5 186.5t-68.5 257t68.5 257t186.5 186.5t257 68.5t257 -68.5t186.5 -186.5t68.5 -257zM64 384q0 -91 35.5 -174t95.5 -143t143 -95.5t174 -35.5t174 35.5t143 95.5t95.5 143t35.5 174t-35.5 174
t-95.5 143t-143 95.5t-174 35.5t-174 -35.5t-143 -95.5t-95.5 -143t-35.5 -174zM706 384l-226 -226l-45 45l181 181l-181 181l45 45z" />
    <glyph glyph-name="uniE655" unicode="&#xe655;" 
d="M986 14q-12 -16 -32 -18t-36 10l-877 696q-16 13 -18 33t10 35l5 6q12 16 32 18.5t36 -10.5l877 -696q16 -12 18 -32t-10 -36zM572 469q1 14 3 30l14 143q1 17 14.5 22t34.5 -19q22 -28 55 -60q34 -32 80 -46q44 -13 64 -34t21 -63q1 -25 6 -35t12 -11.5t19 12.5
t19.5 37.5t5 53t-24.5 58.5q-21 31 -40 45q-20 16 -39 26q-36 20 -42 23q-23 13 -52 40q-34 29 -53 59q-19 29 -32 52q-12 22 -25 36q-13 13 -36 12q-27 0 -44.5 -18t-20.5 -48q-14 -136 -25 -247zM462 291l-8 -79q-15 8 -47.5 18.5t-74.5 13.5q-42 2 -89 -9t-90 -46.5
t-48 -81t19 -86t71 -70.5q48 -30 110 -33t105 12q42 16 69.5 40.5t39.5 54.5q12 29 14 55l14 144z" />
    <glyph glyph-name="uniE656" unicode="&#xe656;" 
d="M900 441q-8 1 -14.5 11t-10.5 37q-5 44 -29 64.5t-74 29.5q-53 11 -93 41q-40 31 -67 58q-26 24 -40 17t-14 -25v-48v-105q0 -63 -0.5 -136t-0.5 -138v-114v-64q1 -27 -9 -60t-37 -62q-28 -29 -73 -50t-113 -24q-69 -4 -125 23q-55 27 -85.5 68t-30 89.5t44 91.5
t93.5 59.5t97 18.5t83.5 -6t54.5 -15v317q0 133 1 299q0 32 17.5 53t46.5 24q24 3 40 -9.5t32 -35.5t40 -52q24 -30 65 -58q35 -25 61 -37q24 -10 49 -20q23 -10 45 -23q22 -14 49 -44q27 -29 33 -60.5t0.5 -57t-17 -42t-19.5 -15.5z" />
    <glyph glyph-name="uniE657" unicode="&#xe657;" 
d="M485 0l-68 297l-296 66l261 164l-7 323l215 -216l277 114l-113 -277l216 -216l-323 7zM216 380l232 -52l53 -232l125 203l253 -6l-168 169l88 218l-217 -90l-168 169l5 -252zM403 313l26 -26l-351 -363l-26 26z" />
    <glyph glyph-name="uniE658" unicode="&#xe658;" 
d="M748 465l109 269l-268 -110l-209 210l7 -314l-254 -159l264 -59l-331 -342l25 -26l334 344l62 -270l157 254l314 -7z" />
    <glyph glyph-name="uniE659" unicode="&#xe659;" 
d="M452 189l-5 71h-1q-10 -21 -24.5 -36t-32 -24.5t-37.5 -14t-41 -4.5q-46 0 -80.5 16.5t-57.5 44.5t-34.5 64.5t-11.5 77t11.5 77t34.5 65t57.5 45t80.5 16.5q31 0 58 -8t48.5 -24.5t36 -40.5t20.5 -57h-37q-2 17 -11.5 34.5t-25.5 31.5t-38.5 23t-50.5 9
q-39 0 -66.5 -14.5t-45.5 -39t-26.5 -55t-8.5 -62.5t8.5 -63t26.5 -55t45.5 -39t66.5 -15q32 0 57.5 11t43 30t26 45t8.5 57h-133v32h166v-198h-27zM540.5 460.5q11.5 36.5 34.5 65t58 45t80.5 16.5t80 -16.5t57.5 -45t34.5 -65t11.5 -77t-11.5 -77t-34.5 -64.5t-57.5 -44.5
t-80 -16.5t-80.5 16.5t-58 44.5t-34.5 64.5t-11.5 77t11.5 77zM575.5 321q8.5 -31 26 -55t45.5 -39t66.5 -15t66 15t45.5 39t26.5 55t8.5 63t-8.5 62.5t-26.5 55t-45.5 39t-66 14.5t-66.5 -14.5t-45.5 -39t-26 -55t-8.5 -62.5t8.5 -63z" />
    <glyph glyph-name="uniE65A" unicode="&#xe65a;" 
d="M424 95q5 0 9 3.5t4 8.5t-4 8.5t-9 3.5h-14q-12 -1 -12 -12t12 -12h9h5v0zM424 95zM303 268q-5 0 -8.5 -3.5t-3.5 -8.5l-1 -142q0 -7 5 -13q7 -6 22 -6h5h21q5 0 8.5 3.5t3.5 8.5q0 11 -7 12h-33v138q0 4 -3.5 7.5t-8.5 3.5zM303 268zM863 646h-199l10 13q25 31 41 71
q5 11 5 18t-5 13t-12 7h-2q-14 0 -18 -16q-2 -7 -5 -12q-41 -72 -72 -93l-2 -1h-184l-2 1q-31 21 -73 94q-2 3 -4 10q-2 8 -9 13t-15 3q-10 -3 -12 -13q-3 -9 4 -21q19 -47 41 -74l10 -13h-199q-8 0 -13.5 -5.5t-5.5 -13.5v-189q0 -8 5.5 -13.5t13.5 -5.5h35v-406
q0 -5 3.5 -9t8.5 -4h608q5 0 8.5 4t3.5 9v406h35q8 0 13.5 5.5t5.5 13.5v189q0 8 -5.5 13.5t-13.5 5.5zM180 457v151h318l-4 -11q-1 -2 -1 -4v-121q0 -2 1 -4l4 -11h-318v0zM790 38h-556v381h556v-381v0zM844 457h-318l4 11q1 2 1 4v121q0 2 -1 4l-4 11h318v-151v0zM844 457
z" />
    <glyph glyph-name="uniE65B" unicode="&#xe65b;" 
d="M948 831h-872q-5 0 -8.5 -4t-3.5 -10v-866q0 -6 3.5 -10t8.5 -4h872q5 0 8.5 4t3.5 10v866q0 6 -3.5 10t-8.5 4zM434 141v0l-277 268l37 39l239 -230l395 409l39 -38z" />
    <glyph glyph-name="uniE65C" unicode="&#xe65c;" 
d="M801 157l-110 406l-212 -274l-57 96l-226 -228h333h272zM422 541q0 28 -19.5 47.5t-47.5 19.5t-47.5 -19.5t-19.5 -47.5t19.5 -47.5t47.5 -19.5t47.5 19.5t19.5 47.5zM422 541zM957 770q-8 24 -27.5 41t-44.5 21q-8 1 -14 1h-718q-6 0 -14 -1q-25 -4 -44.5 -21t-27.5 -41
q-4 -13 -4 -27v-718v-41v0q0 -16 10 -28q13 -21 37 -21h43h718h43q24 0 37 21q10 12 10 28v0v41v718q0 14 -4 27zM198 25q-19 0 -32 13t-13 32v628q0 19 13 32t32 13h628q19 0 32 -13t13 -32v-628q0 -19 -13 -32t-32 -13h-628z" />
    <glyph glyph-name="uniE65D" unicode="&#xe65d;" 
d="M65 383q1 79 30 150q22 50 56 93q47 59 112 95q55 31 116 42q20 4 43 6q18 2 30 1q26 0 41 -2q33 -4 61 -11.5t57 -20.5q43 -19 82 -49q13 -11 27 -24q35 -33 61 -73q7 -11 12 -21q5 -9 2.5 -17t-11.5 -13q-7 -4 -16 -1.5t-13 10.5q-22 38 -50 67q-37 39 -82.5 65.5
t-98.5 38.5q-21 4 -47 7q-15 1 -36 0q-43 -1 -86 -13q-59 -18 -110 -56q-42 -32 -73 -76q-40 -56 -55 -124q-4 -19 -6 -45l-2 -28q0 -14 2 -36q3 -29 10 -53q14 -52 42 -96q23 -36 53 -65q51 -48 117 -73q30 -11 64 -17q28 -4 53 -4q15 0 21 -11q6 -9 1.5 -19.5t-15.5 -12.5
q-5 -1 -30 0q-16 1 -40 5q-62 10 -119 41q-38 21 -72 51q-49 43 -81 99q-30 54 -42 112q-5 30 -7 57v11q0 7 -1 10zM899 484q22 0 46 -22q13 -12 13 -31q0 -14 -10 -26q-40 -56 -84 -117q-13 -17 -40.5 -55t-42.5 -58q-12 -18 -36.5 -51.5t-35.5 -48.5q-8 -10 -9 -11
q-1 0 -3 1t-4 3l-3 3q-3 2 -29.5 21t-39.5 29q-4 2 -1 5q22 31 63 87.5t59 81.5q12 17 54.5 75t65.5 90q11 15 22 20q9 4 15 4zM456 142q-54 1 -96 22q-29 14 -53 37q-40 37 -57 92q-7 21 9 33q19 13 36 0q7 -6 11 -16q9 -29 27 -52q25 -31 62 -46q31 -13 62 -11q50 2 90 32
q37 29 52 75q7 20 25 23q12 2 22.5 -6t10.5 -20q0 -9 -7 -29q-9 -23 -23 -43q-18 -25 -39 -42q-20 -16 -39 -26q-36 -18 -72 -21q-1 0 -21 -2zM241 500q0 20 15 35.5t36 15.5t36 -15.5t15 -35.5q0 -21 -15 -36t-36 -15t-36 15t-15 36zM548 500q0 21 15 36t37 15
q20 0 35 -15.5t15 -36t-15.5 -35.5t-35.5 -15q-21 0 -36 15t-15 36zM691 52l-3 -3l-90 -45q-4 -2 -5 -2q-1 1 0 6q1 7 4.5 29t5.5 34q0 3 2 16t3 20q1 5 5 2q11 -8 36 -27q16 -11 41 -29z" />
    <glyph glyph-name="uniE65E" unicode="&#xe65e;" 
d="M786 558h-183v36v18h-18h-11q18 27 35 49q10 13 19 25q38 45 48 45q22 0 53.5 -20t50.5 -46q8 -10 -8 -44q-4 -6 -1 -13.5t9.5 -10.5t13.5 -0.5t11 9.5q25 54 5 81q-25 33 -64 57t-70 24q-27 0 -76 -59q-9 -12 -20 -26q-19 -25 -39 -54q-4 -5 -7 -10q-4 5 -7 10
q-20 29 -39 54q-11 14 -21 26q-49 59 -76 59q-31 0 -70 -24t-63 -57q-21 -27 4 -80q8 -17 19 -35l10 -14h-126h-18v-19v-127q0 -33 20.5 -58.5t52.5 -31.5v-267q0 -22 16 -38.5t38 -16.5h476q22 0 38 16t16 39v265h55h18v18v128q0 38 -26.5 65t-64.5 27zM494 558v18h73v-18
h-73zM332 562q-11 15 -20 30q-10 16 -17 30q-15 34 -8 43q19 26 51 46t53 20q10 0 48 -45q9 -12 20 -25q16 -22 35 -49h-19h-18v-18v-36h-121zM183 412v109h274h18h37v-164h-274q-23 0 -39 16t-16 39zM256 55v265h256v-283h-238q-7 0 -12.5 5.5t-5.5 12.5zM768 55
q0 -8 -5.5 -13t-12.5 -5h-201v283h219v-265zM549 357v164h36h18h183q23 0 39 -16t16 -39v-109h-292z" />
    <glyph glyph-name="uniE65F" unicode="&#xe65f;" 
d="M512 384zM352 383.5q0 66.5 47 113.5t113.5 47t113 -47t46.5 -113.5t-46.5 -113t-113 -46.5t-113.5 46.5t-47 113z" />
    <glyph glyph-name="uniE660" unicode="&#xe660;" 
d="M884 211q62 135 24 277q-21 78 -71 143.5t-122 106.5l43 94l-247 -65l110 -230l46 98q100 -61 131 -176q28 -103 -17 -200q-28 -62 -78.5 -104t-113.5 -59q-18 -5 -37 -7l51 -106q10 3 15 4q86 23 156.5 81.5t109.5 142.5zM359 129q-102 61 -133 177q-28 103 17 200
q28 62 79 104t114 59q20 5 41 8l-51 106q-11 -3 -20 -5q-86 -23 -156.5 -81.5t-109.5 -142.5q-62 -135 -23 -277v-1q21 -78 71.5 -143.5t123.5 -106.5l-41 -90l247 66l-112 230zM359 129z" />
    <glyph glyph-name="uniE661" unicode="&#xe661;" 
d="M757 604q-7 96 -78.5 162.5t-169.5 66.5t-169.5 -67t-78.5 -164q-73 -26 -119 -90.5t-46 -143.5q0 -102 73 -175t176 -73q65 0 122 32l-84 -214h257l-85 214q57 -32 123 -32q103 0 175.5 73t72.5 175q0 81 -46.5 145.5t-122.5 90.5zM462 -9l49 127l50 -127h-99zM678 173
q-88 0 -147 67l-19 22l-1 2l-1 -2l-19 -22q-58 -67 -146 -67q-81 0 -138 57.5t-57 137.5q0 66 40.5 118.5t104.5 69.5l19 8v21q0 80 57.5 137.5t138 57.5t137.5 -57t57 -137v-24l21 -5q65 -16 106.5 -68.5t41.5 -120.5q0 -80 -57.5 -137.5t-137.5 -57.5zM337 234l-132 132
l132 132l132 -132zM281 366l56 -56l56 56l-56 57zM695 234l-132 132l132 132l132 -132zM638 366l57 -56l56 56l-56 57zM511 433l-132 132l132 132l132 -132zM455 565l56 -57l56 57l-56 56z" />
    <glyph glyph-name="uniE662" unicode="&#xe662;" 
d="M244 248q-84 83 -84 202t83.5 202.5t202.5 83.5t202.5 -83.5t83.5 -202.5t-83.5 -202.5t-202.5 -83.5t-202 84zM922 15l-215 214q57 67 74.5 151t-6.5 167t-86 146q-50 49 -113 75t-130 26t-130.5 -26t-112.5 -75q-66 -66 -89.5 -154.5t0 -177t89.5 -154.5
q49 -49 112.5 -75t130.5 -26q123 0 221 83l214 -215z" />
    <glyph glyph-name="uniE663" unicode="&#xe663;" 
d="M831 298q8 0 13.5 6t5.5 15v367q0 10 -3 22q-1 2 -1 3l-1 6q-9 23 -26.5 37t-40.5 14h-532q-20 0 -38 -12l-2 -2q-32 -24 -32 -68v-604q0 -34 21 -58t51 -24h532q30 0 51 24t21 58v67q0 9 -5.5 15.5t-13.5 6.5t-13.5 -6.5t-5.5 -15.5v0v-63q0 -18 -11 -30.5t-26 -12.5
h-370h-156q-15 0 -26 12.5t-11 30.5v596q0 9 3 18l227 -140q0 -29 20.5 -49.5t49.5 -20.5q28 0 48.5 19.5t21.5 46.5l230 132v-6v-363q0 -9 5.5 -15t13.5 -6zM570 599q-21 31 -58 31t-57 -30l-198 125h518q5 0 11 -2zM570 599zM356 260q5 4 8 8q9 12 9 27q0 25 -15 38
t-43 13h-38q-15 0 -15 -15v-158q0 -15 15 -15h53q26 0 41.5 15t15.5 42q0 20 -13 34q-7 7 -18 11zM340 277q-9 -8 -25 -8h-28v54h28q17 0 25 -8q8 -7 8 -19.5t-8 -18.5zM287 246h28q24 0 36 -9q11 -8 11 -24.5t-9 -23.5q-9 -8 -31 -8h-35v65zM287 246zM513 195q-4 1 -8 0
t-7 -5h-1q-7 -9 -15 -11q-9 -4 -22 -4q-8 0 -15 5q-8 4 -13.5 11t-8.5 16q-2 6 -2 12h81q9 0 13 6q4 4 4 15q0 13 -3 25q-4 12 -11 22t-18.5 15.5t-26.5 5.5q-16 0 -29 -7q-12 -7 -20 -18q-7 -11 -11 -25t-4 -29q0 -14 3 -27q4 -14 12 -25t20.5 -18t28.5 -7q13 0 24 3.5
t18 7.5q8 5 12 10q5 6 5 11q0 3 -1 6q-2 3 -5 5zM459 285q11 0 18 -4q7 -5 11 -12t5 -16l2 -12h-74q0 5 2 10q2 9 6 17q5 7 13 12q6 5 17 5zM459 285zM621 186q-4 1 -7 0q-3 0 -6 -2l-4 -2q-4 -2 -7 -3q-4 -1 -9 -1q-8 0 -11 3t-4 7q-1 5 -1 12v14v63h36q6 0 10 2q6 3 6 10
q0 11 -10 12q-5 1 -13 1h-29v18q0 6 -2 9q-3 5 -10 5t-11 -5q-2 -3 -2 -10v-17h-8q-14 0 -14 -12.5t14 -12.5h8v-81q0 -22 11 -32q10 -9 27 -9q6 0 13 1.5t12 3.5q6 3 10 7q5 4 5 10t-4 9zM621 186zM752 306q-13 0 -13 -15v-1q-2 3 -6 5q-6 6 -14.5 9t-18.5 3q-13 1 -25 -4
t-21 -15t-14 -24.5t-5 -33.5q0 -16 4 -30q5 -14 13.5 -24.5t20 -16t26.5 -5.5q20 0 32 10q4 3 8 7v-1q0 -15 12.5 -15t12.5 15v121q0 15 -12 15zM701 177q-10 0 -17.5 4t-12.5 10q-5 7 -8 17t-3 22t3 22q2 10 7 17t12.5 10.5t18.5 3.5q9 0 16 -4t12 -11q5 -8 8 -18
q2 -10 2 -20.5t-2 -20.5q-3 -10 -7 -17q-5 -7 -12 -11t-17 -4zM701 177z" />
    <glyph glyph-name="uniE664" unicode="&#xe664;" 
d="M933 531q-22 21 -50 20h-68q-10 26 -28 38t-35 13h-76q-10 29 -30.5 44t-39.5 17h-2h-79v147q2 32 -19 55q-27 31 -83 31q-55 0 -84 -30q-24 -24 -23 -57v-354q-57 58 -106 58q-29 0 -49 -8t-29 -20.5t-12.5 -24t-3.5 -24.5q0 -25 11 -62l1 -3l236 -378v-121h483l113 295
v287q0 51 -27 77zM901 178l-95 -247h-383v79l-241 385q-7 28 -7 41q0 8 2 11q6 6 33 6q21 0 52 -28.5t52 -60.5l2 1v-98h59v542l-1 1q0 8 7 15q12 12 42 12q29 0 39 -11q4 -4 5 -12h-1v-351h59v141h74q25 -6 25 -46v-95h58v80h67h2h-2q15 -4 15 -42v-96h59v87h61h1
q4 -1 7 -4q9 -8 9 -34v-276z" />
    <glyph glyph-name="uniE665" unicode="&#xe665;" 
d="M402 843q-112 -30 -191.5 -110.5t-109.5 -190t0 -220.5q16 -58 47 -110q12 -20 35 -20q17 0 29 11.5t12 28.5q0 10 -5 19v1q-26 42 -39 91q-24 90 0 178.5t88.5 153.5t154.5 89t178.5 0t153.5 -88.5t89 -154.5t0 -178.5t-88.5 -153.5t-154.5 -89q-73 -18 -141.5 -7.5
t-128.5 47.5v-1q-9 5 -19 5q-17 0 -28.5 -11.5t-11.5 -28.5q0 -23 20 -35q73 -45 157 -57.5t173 9.5q112 30 191.5 110.5t109.5 189.5t0 220.5t-110.5 191.5t-190 110t-220.5 0zM580 410q1 0 10.5 6t14 9.5t14 11t15 15t11.5 18t9 23.5t3 28q0 50 -34 86t-76 44
q-90 19 -142 -38q-25 -28 -33.5 -55.5t-8.5 -78.5h77v15q0 16 1.5 27t6.5 23.5t17 20.5t30 12q41 8 68 -18q14 -12 12 -36.5t-22 -38.5l-44 -29q-34 -22 -34 -61v-90h77v61q0 26 28 45v0zM514 274q-17 0 -28.5 -11.5t-11.5 -28t11.5 -28t28 -11.5t28 11.5t11.5 28t-11.5 28
t-27.5 11.5v0zM514 274z" />
    <glyph glyph-name="uniE666" unicode="&#xe666;" 
d="M896 34q0 -14 -10 -24t-24 -10h-701q-14 0 -23.5 10t-9.5 24t9.5 23.5t23.5 9.5h701q14 0 24 -9.5t10 -23.5zM512 128q-14 0 -24 10t-10 24v572q0 14 10 24t24 10t23.5 -10t9.5 -24v-572q0 -14 -9.5 -24t-23.5 -10zM535 138q-9 -9 -23 -9t-24 9l-252 252q-10 10 -10 24
t10 24q10 9 24 9t24 -9l251 -252q10 -10 10 -24t-10 -24zM488 138q-10 10 -10 24t10 24l252 252q10 9 23.5 9t23.5 -9q10 -10 10 -24t-10 -24l-252 -252q-9 -9 -23 -9t-24 9z" />
    <glyph glyph-name="uniE667" unicode="&#xe667;" 
d="M342 867h340q33 0 55.5 -19.5t22.5 -47.5v-242h8h198q44 0 56 -31q10 -31 -19 -56l-440 -374q-21 -17 -51 -17t-51 17l-440 374q-29 25 -18 56t55 31h198q7 0 10 3l-2 239q0 28 22.5 47.5t55.5 19.5zM912 487h-144q-33 0 -55.5 19.5t-22.5 48.5v241h-8h-340q-7 0 -10 -3
l2 -238q0 -29 -22.5 -48.5t-55.5 -19.5h-144l428 -362l-44 10zM987 -99h-950q-16 0 -26.5 11.5t-10.5 27.5t10.5 27.5t26.5 11.5h950q16 0 26.5 -11.5t10.5 -27.5t-10.5 -27.5t-26.5 -11.5z" />
    <glyph glyph-name="uniE668" unicode="&#xe668;" 
d="M858 697q21 0 35.5 -14.5t14.5 -35.5v-397q0 -21 -14.5 -35.5t-35.5 -14.5h-695q-20 0 -34.5 14.5t-14.5 35.5v397q0 21 14.5 35.5t34.5 14.5h695zM858 746h-695q-41 0 -70 -29t-29 -70v-397q0 -41 29 -70t70 -29h695q41 0 70.5 29t29.5 70v397q0 41 -29.5 70t-70.5 29z
M759 48h-496q-11 0 -18 7t-7 17.5t7 17.5t18 7h496q10 0 17.5 -7t7.5 -17.5t-7.5 -17.5t-17.5 -7z" />
    <glyph glyph-name="uniE669" unicode="&#xe669;" 
d="M684 452q-29 23 -50 67t-21 82l-1 88q0 37 -23 49.5t-54 -7.5l-73 -48q-32 -20 -80 -26.5t-83 4.5l-83 26q-36 12 -55 -6t-9 -55l22 -84q10 -37 1 -85t-30 -78l-51 -71q-22 -31 -10.5 -54.5t48.5 -25.5l87 -5q37 -2 79.5 -25.5t65.5 -53.5l52 -70q22 -31 47.5 -27.5
t39.5 38.5l31 82q14 35 49 68.5t70 45.5l83 28q35 12 40 37.5t-24 49.5zM569 331.5q-31 -7.5 -62.5 -33t-45 -53.5t-35.5 -29.5t-39 24.5t-51.5 47.5t-66.5 25t-40 23.5t12.5 44t30.5 62.5t4 68.5t11 44t46.5 2.5t70.5 -9t69 17.5t46.5 3.5t16.5 -42t13 -67.5t38.5 -58.5
t18 -42t-36.5 -28zM927 -48q17 -16 17 -39t-17 -39v-1q-17 -16 -40 -16t-40 16l-242 238q-17 17 -17 40t17 39v1q17 16 40.5 16t39.5 -16z" />
    <glyph glyph-name="uniE66B" unicode="&#xe66b;" 
d="M529.5 730q70.5 0 134.5 -28q62 -26 110 -74t74 -110q27 -64 27 -134t-27 -134q-26 -62 -74 -110t-110 -74q-64 -28 -134.5 -28t-134.5 28q-62 26 -110 74t-74 110q-27 64 -27 134t27 134q26 62 74 110t110 74q64 28 134.5 28zM530 784q-82 0 -156 -32
q-72 -30 -127 -85.5t-86 -126.5q-31 -75 -31 -156t31 -156q31 -71 86 -126.5t127 -85.5q74 -32 155.5 -32t155.5 32q72 30 127 85.5t86 126.5q31 75 31 156t-31 156q-31 71 -86 126.5t-127 85.5q-74 32 -155 32v0zM530 784zM744 459q1 12 -7.5 20t-20 8t-19.5 -8l-205 -204
l-129 129q-8 8 -20 8t-20 -8t-8 -20t8 -20q38 -37 46 -45q10 -11 35.5 -35.5t38.5 -38.5l14 -14q2 -2 7.5 -8t8.5 -9t9 -5.5t11 -2.5q14 0 28 17q17 19 26 27q8 9 25 26l26 26l28 28l33 33q49 49 52 51l24 25l1 1q8 8 8 19zM744 459z" />
    <glyph glyph-name="uniE66C" unicode="&#xe66c;" 
d="M512 748q-185 0 -316.5 -131.5t-131.5 -316.5t131.5 -316.5t316.5 -131.5t316.5 131.5t131.5 316.5t-131.5 316.5t-316.5 131.5zM512 -84q-159 0 -271.5 112.5t-112.5 271.5t112.5 271.5t271.5 112.5t271.5 -112.5t112.5 -271.5t-112.5 -271.5t-271.5 -112.5zM670 504
l-158 -159l-158 159l-46 -46l159 -158l-159 -158l46 -46l158 159l158 -159l46 46l-159 158l159 158z" />
    <glyph glyph-name="uniE66D" unicode="&#xe66d;" 
d="M942 491q-35 83 -99 147t-147 99q-85 36 -179 36t-180 -36q-83 -35 -146.5 -99t-98.5 -147q-37 -86 -37 -179.5t37 -179.5q35 -83 98.5 -147t146.5 -99q86 -36 180 -36t179 36q83 35 147 99t99 147q36 86 36 179.5t-36 179.5zM883 157q-30 -71 -85 -126t-127 -86
q-73 -31 -154 -31t-155 31q-71 31 -126 86t-85 126q-31 74 -31 154.5t31 154.5q30 71 85 126t126 86q74 31 155 31t154 -31q72 -31 127 -86t85 -126q31 -74 31 -154.5t-31 -154.5zM512.5 554q-14.5 0 -24.5 -10.5t-10 -24.5v-267q0 -15 10 -25t24.5 -10t25 10t10.5 25v267
q0 14 -10.5 24.5t-25 10.5zM512.5 180q-14.5 0 -25 -10t-10.5 -25v-35q0 -14 10.5 -24.5t25 -10.5t24.5 10.5t10 24.5v35q0 15 -10 25t-24.5 10z" />
    <glyph glyph-name="uniE66E" unicode="&#xe66e;" 
d="M65 831v-894h894v894h-894zM897 -1h-770v770h770v-770z" />
    <glyph glyph-name="uniE66F" unicode="&#xe66f;" 
d="M959 -131q0 -6 -4 -10t-9 -4h-872q-5 0 -8.5 4t-3.5 10v866q0 6 3.5 10t8.5 4h872q5 0 9 -4t4 -10v-866z" />
    <glyph glyph-name="uniE670" unicode="&#xe670;" 
d="M512.5 564q-105.5 0 -180.5 -74t-75 -178.5t75 -178.5t180.5 -74t180 74t74.5 178.5t-74.5 178.5t-180 74zM512 112q-83 0 -142 58.5t-59 141t59 141t142 58.5t142 -58.5t59 -141t-59 -141t-142 -58.5zM515 629q11 0 19 8t8 19v65q0 11 -8 18.5t-19 7.5t-19 -7.5
t-8 -18.5v-65q0 -11 8 -19t19 -8zM289 539q11 0 19 8t8 19t-8 19l-46 45q-8 8 -19 8t-19 -8t-8 -19t8 -18l46 -46q8 -8 19 -8zM194 370h-65q-12 0 -19.5 -7.5t-7.5 -18.5t7.5 -19t19.5 -8h65q11 0 19 8t8 19t-8 18.5t-19 7.5zM896 364h-65q-11 0 -19 -7.5t-8 -18.5t8 -19
t19 -8h65q11 0 19 8t8 19t-8 18.5t-19 7.5zM739.5 535q11.5 0 19.5 8l46 45q7 8 7 19t-7.5 19t-19 8t-18.5 -8l-47 -46q-7 -7 -7 -18t7.5 -19t19 -8zM611 6h-198q-11 0 -19 -8t-8 -19t8 -18.5t19 -7.5h198q12 0 19.5 7.5t7.5 18.5t-7.5 19t-19.5 8zM576 -95h-127
q-11 0 -19 -8t-8 -19t8 -19t19 -8h127q11 0 18.5 8t7.5 19t-7.5 19t-18.5 8zM512.5 564q-105.5 0 -180.5 -74t-75 -178.5t75 -178.5t180.5 -74t180 74t74.5 178.5t-74.5 178.5t-180 74zM512 112q-83 0 -142 58.5t-59 141t59 141t142 58.5t142 -58.5t59 -141t-59 -141
t-142 -58.5zM515 629q11 0 19 8t8 19v65q0 11 -8 18.5t-19 7.5t-19 -7.5t-8 -18.5v-65q0 -11 8 -19t19 -8zM289 539q11 0 19 8t8 19t-8 19l-46 45q-8 8 -19 8t-19 -8t-8 -19t8 -18l46 -46q8 -8 19 -8zM194 370h-65q-12 0 -19.5 -7.5t-7.5 -18.5t7.5 -19t19.5 -8h65
q11 0 19 8t8 19t-8 18.5t-19 7.5zM896 364h-65q-11 0 -19 -7.5t-8 -18.5t8 -19t19 -8h65q11 0 19 8t8 19t-8 18.5t-19 7.5zM739.5 535q11.5 0 19.5 8l46 45q7 8 7 19t-7.5 19t-19 8t-18.5 -8l-47 -46q-7 -7 -7 -18t7.5 -19t19 -8zM611 6h-198q-11 0 -19 -8t-8 -19t8 -18.5
t19 -7.5h198q12 0 19.5 7.5t7.5 18.5t-7.5 19t-19.5 8zM576 -95h-127q-11 0 -19 -8t-8 -19t8 -19t19 -8h127q11 0 18.5 8t7.5 19t-7.5 19t-18.5 8z" />
    <glyph glyph-name="uniE672" unicode="&#xe672;" 
d="M514 894q-104 0 -198.5 -40.5t-162.5 -108.5t-108.5 -162.5t-40.5 -198.5t40.5 -198.5t108.5 -162.5t162.5 -108.5t198.5 -40.5t198.5 40.5t162.5 108.5t108.5 162.5t40.5 198.5t-40.5 198.5t-108.5 162.5t-162.5 108.5t-198.5 40.5zM733 192q10 -10 10 -24.5t-10 -24.5
t-24.5 -10t-24.5 10l-170 170l-170 -170q-11 -10 -25 -10t-24.5 10t-10.5 24.5t11 24.5l170 170l-170 170q-11 11 -11 25t10.5 24.5t24.5 10.5t25 -10l170 -171l170 171q10 10 24.5 10t24.5 -10.5t10 -24.5t-10 -25l-170 -170z" />
    <glyph glyph-name="uniE673" unicode="&#xe673;" 
d="M513 896q-104 0 -198.5 -40.5t-163 -109t-108.5 -163t-40 -198.5t40 -198.5t108.5 -163t163 -108.5t198.5 -40t198.5 40t163 108.5t109 163t40.5 198.5t-40.5 198.5t-109 163t-163 109t-198.5 40.5zM460 143v-1q-2 -1 -7 -4l-1 -1l-2 -1q-6 -3 -12 -3q-5 0 -11 3h-1l-2 2
q-5 2 -6 3v1l-239 235q-9 8 -9 20.5t9 21.5t21 9t21 -9l217 -213l396 422q8 9 20.5 9t21.5 -8t9.5 -20.5t-8.5 -21.5z" />
    <glyph glyph-name="uniE674" unicode="&#xe674;" 
d="M1 890v-1017h1022v1017h-1022zM849 573q-400 -403 -402 -405q-4 -4 -12 -4q-7 0 -12 4q0 1 -62.5 64t-124.5 126l-61 62q-11 10 -0.5 21t21.5 0l239 -239l393 393q11 11 21.5 0t-0.5 -22z" />
    <glyph glyph-name="uniE675" unicode="&#xe675;" 
d="M512 893q-104 0 -198.5 -40.5t-163 -108.5t-109 -162.5t-40.5 -197.5t40.5 -197.5t109 -162.5t163 -108.5t198.5 -40.5t198.5 40.5t163 108.5t109 162.5t40.5 197.5t-40.5 197.5t-109 162.5t-163 108.5t-198.5 40.5zM520 24q-92 0 -171 45.5t-124.5 123.5t-45.5 170.5
t45.5 170.5t124.5 123.5t171 45.5v74l178 -118l-178 -118v74q-104 0 -178 -74t-74 -177.5t74 -177.5t178.5 -74t178.5 74t74 178q0 18 13 31t31.5 13t31.5 -13t13 -31q0 -93 -46 -171t-124.5 -123.5t-171.5 -45.5zM520 24z" />
  </font>
</defs>
</svg>
